<svg width="281" height="158" viewBox="0 0 281 158" fill="none" xmlns="http://www.w3.org/2000/svg">
<path d="M177.182 58.4711V27.5693L173.966 30.7773V58.4711L179.502 64.0338L173.966 69.597H177.182L182.758 64.0338L177.182 58.4711Z" fill="#FF8AE2"/>
<path d="M260.176 25.1328H256.961L262.497 30.6959V39.9544V45.5171V65.8613L258.793 69.5968H262.008L265.753 65.8613V45.5171V39.9544V30.6959L260.176 25.1328Z" fill="#FF8AE2"/>
<path d="M121.418 10.3113H118.447L124.023 15.8744V25.1327V30.6958V41.7814V65.8611L120.278 69.5967H123.29L126.994 65.8611V15.8744L121.418 10.3113Z" fill="#FF8AE2"/>
<path d="M70.1321 58.4706V27.488L66.9163 30.6959V58.4706L72.4929 64.0338L66.9163 69.5969H70.1321L75.7084 64.0338L70.1321 58.4706Z" fill="#FF8AE2"/>
<path d="M157.807 19.5696H154.591V25.1327H157.807V19.5696Z" fill="#FF8AE2"/>
<path d="M154.591 62.1661L157.807 58.9581V32.5232L165.256 25.1328H162.04L154.591 32.5232V62.1661Z" fill="#FF8AE2"/>
<path d="M158.336 58.4709L160.168 60.3389L154.592 65.8613L150.887 69.5972H154.103L157.807 65.8613L163.383 60.3389L161.552 58.4709H158.336Z" fill="#FF8AE2"/>
<path d="M207.466 58.4704V30.6958V25.1327V15.8744L201.889 10.3113H198.674L204.25 15.8744V25.1327V30.6958V58.4704L209.786 64.0336L204.25 69.5967H207.466L213.042 64.0336L207.466 58.4704Z" fill="#FF8AE2"/>
<path d="M213.042 25.1328H209.786L217.235 32.5232V56.603L211.414 62.4097L213.042 64.0337L220.45 56.603V32.5232L213.042 25.1328Z" fill="#FF8AE2"/>
<path d="M26.5792 22.8589V36.3809L29.7948 33.173V22.8589V13.154L23.9335 7.30664H23.8928H20.7179L26.5792 13.154V22.8589Z" fill="#FF8AE2"/>
<path d="M44.082 15.1031V22.8589V52.0549V57.9024L47.9893 61.8007L49.6177 60.1763L47.2974 57.9024V52.0549V22.8589V15.1031V13.154L41.4362 7.30664H38.2204L44.082 13.154V15.1031Z" fill="#FF8AE2"/>
<path d="M36.2665 35.1218L26.5791 44.7864V65.6984L22.6716 69.5967H25.8872L29.7947 65.6984V44.7864L36.2665 38.3298V35.1218Z" fill="#FF8AE2"/>
<path d="M16.8104 15.1436L10.9491 20.9503H14.2054L18.4386 16.7272L16.8104 15.1436Z" fill="#FF8AE2"/>
<path d="M55.1125 57.9023H51.8971L53.8509 59.8515L49.9432 63.7498L47.9893 65.6986L44.082 69.5969H47.2974L51.2052 65.6986L53.159 63.7498L57.0664 59.8515L55.1125 57.9023Z" fill="#FF8AE2"/>
<path d="M182.758 25.1328H179.502L186.951 32.5232V56.603L181.13 62.4097L182.758 64.0337L190.167 56.603V32.5232L182.758 25.1328Z" fill="#FF8AE2"/>
<path d="M246.012 32.4826L233.068 45.3955V58.471L236.772 62.1661L238.4 60.5825L236.284 58.471V45.3955L249.227 32.4826L241.86 25.1328H238.645L246.012 32.4826Z" fill="#FF8AE2"/>
<path d="M242.348 56.6028L244.221 58.4704L238.645 64.0335L236.772 65.8611L233.068 69.5966H236.284L239.987 65.8611L241.86 64.0335L247.437 58.4704L245.564 56.6028H242.348Z" fill="#FF8AE2"/>
<path d="M233.068 41.7003L236.284 38.4923V33.9037L233.068 30.6958V41.7003Z" fill="#FF8AE2"/>
<path d="M83.1162 60.3386V32.5232L75.7083 25.1328H72.4929L79.9007 32.5232V60.3386L83.6048 64.0337L78.0691 69.5968H81.2845L86.8203 64.0337L83.1162 60.3386Z" fill="#FF8AE2"/>
<path d="M102.288 62.1657L103.875 60.582L101.799 58.4705V33.8225L98.6245 30.6958H98.5839V58.4705L102.288 62.1657Z" fill="#FF8AE2"/>
<path d="M111.08 56.6028H107.864L109.696 58.4704L104.16 64.0335L102.288 65.8611L98.5839 69.5966H101.799L105.503 65.8611L107.376 64.0335L112.911 58.4704L111.08 56.6028Z" fill="#FF8AE2"/>
<path d="M104.16 36.1777H107.376L112.911 30.6146L107.376 25.0515H104.16L109.696 30.6146L104.16 36.1777Z" fill="#FF8AE2"/>
<path d="M132.815 25.1328H129.559L135.135 30.6959L129.559 36.259H132.815L138.351 30.6959L132.815 25.1328Z" fill="#FF8AE2"/>
<path d="M271.289 25.1328H268.073L273.649 30.6959L268.073 36.259H271.289L276.865 30.6959L271.289 25.1328Z" fill="#FF8AE2"/>
<path d="M132.815 36.259H129.559L135.135 41.7815V65.8612L131.431 69.5971H134.647L138.351 65.8612V41.7815L132.815 36.259Z" fill="#FF8AE2"/>
<path d="M162.04 25.1329H154.592V19.5698L141.607 32.5233H147.184V65.8611L150.887 69.5971L154.592 65.8611L160.168 60.3388L158.337 58.4708L154.592 62.166V32.5233L162.04 25.1329Z" fill="#9C4668"/>
<path d="M204.25 30.6958V25.1327V15.8744L198.674 10.3113L193.097 15.8744L196.801 19.5696V62.166L204.25 69.5967L209.786 64.0336L204.25 58.4704V30.6958Z" fill="#9C4668"/>
<path d="M204.25 30.6959L209.785 36.259V64.0337L217.234 56.603V32.5232L209.785 25.1328L204.25 30.6959Z" fill="#9C4668"/>
<path d="M47.9893 61.8007L44.082 57.9024V52.0549V22.8589V15.1031V13.154L38.2207 7.30664L32.4 13.154L36.2668 17.0116V26.7166L26.5794 36.3809V22.8589V13.154L20.7181 7.30664H20.6774L8.95482 18.9607L10.9493 20.9504L16.8106 15.1437L18.7643 17.0928V65.699L22.6719 69.5969L26.5794 65.699V44.7866L36.2668 35.1221V52.0549V61.8007L44.082 69.5969L47.9893 65.699L49.9432 63.7498L53.8505 59.8515L51.8971 57.9024L47.9893 61.8007Z" fill="#9C4668"/>
<path d="M173.966 30.6958L166.518 38.0863V62.1657L173.966 69.5968L179.502 64.0337L173.966 58.4705V30.6958Z" fill="#9C4668"/>
<path d="M173.967 30.6959L179.502 36.259V64.0337L186.951 56.603V32.5232L179.502 25.1328L173.967 30.6959Z" fill="#9C4668"/>
<path d="M246.012 32.4826L238.645 25.1328L233.068 30.6959L238.604 36.1778L233.068 41.7004V30.6959L225.619 38.0864V62.1661L233.068 69.5968L236.772 65.8613L238.645 64.0337L244.221 58.471L242.348 56.603L236.772 62.1661L233.068 58.471V45.3955L246.012 32.4826Z" fill="#9C4668"/>
<path d="M66.9163 30.6958L59.4676 38.0863V62.1657L66.9163 69.5968L72.4929 64.0337L66.9163 58.4705V30.6958Z" fill="#9C4668"/>
<path d="M79.9007 32.5232L72.4929 25.1328L66.9163 30.6959L72.4929 36.259V64.0337L78.0691 69.5968L83.6048 64.0337L79.9007 60.3386V32.5232Z" fill="#9C4668"/>
<path d="M102.288 62.1661L98.5839 58.4709V30.696L91.1349 38.0864V62.1661L98.5839 69.5972L102.288 65.8613L104.16 64.0341L109.696 58.4709L107.864 56.603L102.288 62.1661Z" fill="#9C4668"/>
<path d="M104.171 25.064L98.5876 30.6343L104.171 36.2046L109.755 30.6343L104.171 25.064Z" fill="#9C4668"/>
<path d="M129.602 25.1057L124.018 30.676L129.602 36.2463L135.185 30.676L129.602 25.1057Z" fill="#9C4668"/>
<path d="M127.727 45.5174V65.8612L131.431 69.5971L135.135 65.8612V41.7815L129.559 36.259L124.024 41.7815L127.727 45.5174Z" fill="#9C4668"/>
<path d="M124.024 25.1327V15.8744L118.447 10.3113L112.871 15.8744L116.575 19.5696V65.8611L120.279 69.5967L124.024 65.8611V41.7814V30.6958V25.1327Z" fill="#9C4668"/>
<path d="M268.114 25.1033L262.53 30.6736L268.114 36.2439L273.697 30.6736L268.114 25.1033Z" fill="#9C4668"/>
<path d="M251.384 30.6959L255.088 34.3911V39.9544V45.5171V65.8613L258.792 69.5968L262.496 65.8613V45.5171V39.9544V30.6959L256.961 25.1328L251.384 30.6959Z" fill="#9C4668"/>
<path d="M170.914 10.8393V8.6466H171.769C172.542 8.6466 173.153 9.2557 173.153 10.0272V15.9964C172.298 16.2806 171.687 17.0928 171.687 18.0673C171.687 18.6764 171.931 19.2043 172.298 19.6104C172.705 20.0164 173.234 20.2601 173.885 20.2601C175.106 20.2601 176.083 19.2855 176.083 18.0673C176.083 17.174 175.513 16.4024 174.74 16.037V10.0272C174.74 9.21511 174.414 8.48419 173.844 7.91568C173.275 7.34721 172.542 7.02233 171.728 7.02233H170.873V4.82959L167.902 7.79387L170.914 10.8393ZM173.926 17.0927C174.211 17.0927 174.455 17.2146 174.659 17.377C174.821 17.5394 174.944 17.8237 174.944 18.0673C174.944 18.3515 174.821 18.5952 174.659 18.7576C174.455 18.9606 174.211 19.0419 173.967 19.0419C173.397 19.0419 172.949 18.5952 172.949 18.0267C172.908 17.5394 173.356 17.0927 173.926 17.0927Z" fill="#9C4668"/>
<path d="M167.454 18.108C167.454 17.2146 166.884 16.4431 166.111 16.0776V9.90545C166.884 9.5806 167.454 8.80906 167.454 7.87511C167.454 6.65691 166.477 5.68237 165.256 5.68237C164.035 5.68237 163.058 6.65691 163.058 7.87511C163.058 8.44362 163.261 9.0121 163.669 9.41816C163.913 9.66183 164.198 9.82423 164.482 9.94604V16.0371C163.628 16.3213 163.017 17.1334 163.017 18.108C163.017 18.7171 163.261 19.245 163.628 19.651C164.035 20.0571 164.564 20.3007 165.215 20.3007C166.477 20.3007 167.454 19.2856 167.454 18.108ZM165.256 8.89028C164.971 8.89028 164.727 8.76847 164.564 8.60603C164.361 8.403 164.279 8.15937 164.279 7.91574C164.279 7.34723 164.727 6.90057 165.297 6.90057C165.582 6.90057 165.826 7.02239 166.029 7.18483C166.192 7.34723 166.314 7.63149 166.314 7.87511C166.273 8.44362 165.826 8.89028 165.256 8.89028ZM165.256 19.0825C164.686 19.0825 164.238 18.6359 164.238 18.0674C164.238 17.7831 164.361 17.5395 164.523 17.3771C164.727 17.174 164.971 17.0928 165.215 17.0928C165.5 17.0928 165.744 17.2146 165.948 17.3771C166.111 17.5395 166.233 17.8237 166.233 18.0674C166.273 18.6359 165.826 19.0825 165.256 19.0825Z" fill="#9C4668"/>
<path d="M224.805 28.2188C225.7 27.4067 225.782 26.026 224.968 25.1327C224.724 24.889 224.479 24.686 224.195 24.5642V20.3817C225.741 22.3714 227.573 23.2242 228.957 23.6302C229.038 23.9957 229.201 24.3206 229.445 24.6048C229.852 25.0515 230.381 25.2951 230.951 25.3357C231.521 25.3763 232.091 25.1733 232.538 24.7672C233.434 23.9551 233.515 22.5745 232.702 21.6811C232.294 21.2345 231.765 20.9908 231.196 20.9502C230.666 20.9096 230.178 21.072 229.73 21.3969C229.689 21.4375 229.649 21.4781 229.608 21.5187C229.445 21.6811 229.283 21.8436 229.201 22.0466C227.98 21.6405 226.352 20.7472 225.049 18.7575C225.782 17.9453 225.823 16.6865 225.049 15.8338C224.276 14.9811 222.974 14.8592 222.078 15.5495C222.037 15.5902 221.997 15.6307 221.956 15.6714C221.06 16.4835 220.979 17.8641 221.793 18.7575C222.037 19.0417 222.322 19.2041 222.648 19.3259V24.5236C222.444 24.6048 222.241 24.686 222.078 24.8484C222.037 24.889 221.997 24.9296 221.956 24.9703C221.508 25.3763 221.264 25.9042 221.223 26.4727C221.182 27.0412 221.386 27.6097 221.793 28.0563C222.526 28.9091 223.91 28.9903 224.805 28.2188ZM230.422 22.3714C230.625 22.209 230.87 22.0872 231.155 22.1278C231.44 22.1278 231.684 22.2496 231.847 22.4526C232.213 22.8587 232.172 23.5084 231.765 23.8739C231.765 23.8739 231.725 23.9145 231.684 23.9145C231.481 24.0769 231.277 24.1175 231.033 24.1175C230.748 24.1175 230.504 23.9957 230.341 23.7926C230.178 23.5896 230.056 23.346 230.096 23.0617C230.096 22.8181 230.219 22.5745 230.422 22.3714ZM222.729 16.5647C223.136 16.1993 223.787 16.2398 224.154 16.6459C224.52 17.052 224.479 17.7017 224.072 18.0671L224.031 18.1077C223.625 18.4326 223.014 18.3514 222.689 17.9859C222.281 17.5393 222.322 16.9302 222.729 16.5647ZM222.363 26.5133C222.363 26.229 222.485 25.9854 222.689 25.823C223.095 25.4575 223.747 25.4981 224.113 25.9042C224.479 26.3103 224.439 26.96 224.031 27.3254L223.991 27.366C223.584 27.6909 222.974 27.6097 222.648 27.2442C222.444 27.0412 222.322 26.7569 222.363 26.5133Z" fill="#9C4668"/>
<path d="M65.8175 5.72295C65.8175 5.56054 65.8584 5.35751 65.9398 5.19507H63.009V6.45386H65.9398C65.8175 6.25083 65.777 5.96661 65.8175 5.72295Z" fill="#9C4668"/>
<path d="M69.8876 5.9663C69.8876 6.12871 69.8471 6.33174 69.7657 6.49418H72.6962V5.23535H69.8062C69.8471 5.43838 69.8876 5.68205 69.8876 5.9663Z" fill="#9C4668"/>
<path d="M70.4985 5.84468C70.4985 5.88527 70.4985 5.96649 70.4985 6.00709C70.458 6.738 70.1321 7.38773 69.603 7.83439C69.0738 8.32168 68.3819 8.52471 67.69 8.48408C66.2248 8.4029 65.0851 7.14407 65.1665 5.68224C65.207 4.95133 65.5328 4.30163 66.062 3.85494C66.5912 3.36767 67.2831 3.16464 67.975 3.20525C69.4402 3.24585 70.4985 4.42345 70.4985 5.84468ZM66.428 5.84468C66.428 6.5756 66.9981 7.1847 67.7714 7.26592C68.1378 7.30651 68.5041 7.14407 68.7892 6.90044C69.0738 6.65682 69.2366 6.29134 69.2774 5.92587C69.3183 5.15436 68.7483 4.50467 67.975 4.42345L68.0155 3.81435L67.975 4.42345C67.6086 4.38285 67.2422 4.54526 66.9572 4.78888C66.6725 5.03255 66.5098 5.39799 66.4689 5.76346C66.428 5.76346 66.428 5.80405 66.428 5.84468Z" fill="#9C4668"/>
<path d="M247.64 72.48C247.64 72.3173 247.68 72.1145 247.762 71.9521H244.831V73.2107H247.762C247.68 73.0079 247.64 72.7236 247.64 72.48Z" fill="#9C4668"/>
<path d="M251.71 72.7239C251.71 72.8863 251.669 73.0894 251.588 73.2518H254.519V71.9929H251.629C251.71 72.1961 251.75 72.4396 251.71 72.7239Z" fill="#9C4668"/>
<path d="M252.361 72.602C252.361 72.6425 252.361 72.7236 252.361 72.7644C252.321 73.4951 251.995 74.1449 251.466 74.5916C250.937 75.0383 250.245 75.2819 249.553 75.2414C248.088 75.1603 246.948 73.9014 247.029 72.4393C247.07 71.7087 247.395 71.0588 247.925 70.6121C248.454 70.125 249.146 69.9219 249.838 69.9623C251.262 70.0438 252.361 71.1808 252.361 72.602ZM248.291 72.602C248.291 73.3327 248.861 73.9418 249.634 74.023C250.001 74.0637 250.367 73.9014 250.652 73.6578C250.937 73.4139 251.099 73.0484 251.14 72.6832C251.181 71.9114 250.611 71.262 249.838 71.1808L249.878 70.5717L249.838 71.1808C249.471 71.14 249.105 71.3024 248.82 71.5463C248.535 71.7898 248.372 72.1553 248.332 72.5205C248.291 72.5613 248.291 72.5613 248.291 72.602Z" fill="#9C4668"/>
<path d="M34.2724 76.7032C34.2724 76.5408 34.3131 76.3377 34.3945 76.1753H31.4639V77.4342H34.3945C34.2724 77.2311 34.2317 76.9467 34.2724 76.7032Z" fill="#9C4668"/>
<path d="M38.3426 76.9467C38.3426 77.1091 38.3018 77.3122 38.2204 77.4746H41.1512V76.2161H38.2613C38.3018 76.4188 38.3426 76.6624 38.3426 76.9467Z" fill="#9C4668"/>
<path d="M38.9535 76.825C38.9535 76.8654 38.9535 76.9466 38.9535 76.9873C38.9127 77.7183 38.5871 78.3678 38.058 78.8145C37.5288 79.302 36.8369 79.5048 36.1448 79.4643C34.6795 79.3832 33.5398 78.1243 33.6212 76.6626C33.6619 75.9316 33.9876 75.2817 34.5167 74.835C35.0459 74.3883 35.7378 74.1448 36.4298 74.1856C37.8544 74.226 38.9535 75.4037 38.9535 76.825ZM34.883 76.825C34.883 77.556 35.4529 78.165 36.2263 78.2462C36.5928 78.2866 36.9588 78.1243 37.2438 77.8807C37.5288 77.6372 37.6916 77.2716 37.7325 76.9061C37.773 76.1347 37.2033 75.4849 36.4298 75.4037L36.4705 74.7539L36.4298 75.4037C36.0635 75.3629 35.6971 75.5257 35.4122 75.7692C35.1273 76.0128 34.9645 76.3783 34.9238 76.7438C34.883 76.7842 34.883 76.7842 34.883 76.825Z" fill="#9C4668"/>
<path d="M138.391 18.189C138.391 18.0266 138.432 17.8236 138.514 17.6611H135.583V18.9199H138.514C138.432 18.6763 138.391 18.4326 138.391 18.189Z" fill="#9C4668"/>
<path d="M142.462 18.4327C142.462 18.5951 142.421 18.7981 142.34 18.9606H145.27V17.6611H142.381C142.462 17.9048 142.502 18.1484 142.462 18.4327Z" fill="#9C4668"/>
<path d="M143.113 18.311C143.113 18.3516 143.113 18.4328 143.113 18.4734C143.072 19.2043 142.747 19.854 142.218 20.3007C141.689 20.788 140.997 20.991 140.305 20.9504C138.839 20.8692 137.699 19.6104 137.781 18.1486C137.822 17.4176 138.147 16.7679 138.676 16.3213C139.206 15.834 139.897 15.6309 140.589 15.6716C142.014 15.7122 143.113 16.8898 143.113 18.311ZM139.043 18.311C139.043 19.0419 139.612 19.651 140.386 19.7322C140.752 19.7728 141.119 19.6104 141.404 19.3668C141.689 19.1231 141.851 18.7577 141.892 18.3922C141.933 17.6207 141.363 16.9709 140.589 16.8898L140.63 16.2807L140.589 16.8898C140.223 16.8491 139.857 17.0116 139.572 17.2552C139.287 17.4989 139.124 17.8643 139.083 18.2298C139.043 18.2298 139.043 18.2704 139.043 18.311Z" fill="#9C4668"/>
<path d="M97.8102 18.514C97.1588 17.4988 95.775 17.2146 94.7576 17.9049C94.2689 18.2297 93.9434 18.717 93.8211 19.2855C93.6992 19.854 93.8211 20.4631 94.147 20.9504C94.3503 21.2753 94.7981 21.6001 95.1645 21.6813V23.2244C95.1645 23.671 94.7981 24.6862 93.6992 24.6862H89.7101V20.788C89.9951 20.6662 90.2802 20.5037 90.4834 20.2195C91.2976 19.3261 91.2162 17.9455 90.3207 17.1334C89.4251 16.3213 88.0413 16.4024 87.2271 17.2958C86.8202 17.7425 86.6575 18.311 86.6575 18.8794C86.6575 19.4479 86.9425 20.0164 87.3902 20.3819C87.4308 20.4225 87.4716 20.4631 87.5121 20.5037C87.6749 20.6255 87.8785 20.7474 88.0822 20.8286V26.0262C87.7563 26.148 87.4716 26.3511 87.2271 26.5947C86.4133 27.488 86.4947 28.8686 87.3902 29.6808C87.4308 29.7214 87.4716 29.762 87.5121 29.8026C88.4077 30.4929 89.7101 30.3711 90.4834 29.5184C91.2162 28.6656 91.2162 27.3662 90.4834 26.5947C90.3615 26.4729 90.2802 26.3916 90.1988 26.3105H93.6584C95.775 26.3105 96.7111 24.5238 96.7111 23.3056V21.8031C96.8333 21.7625 96.9961 21.6813 97.1183 21.6001C97.1588 21.5595 97.1997 21.5189 97.2402 21.4783C97.6475 21.1534 97.9321 20.7067 98.0544 20.1789C98.258 19.5698 98.1358 19.0013 97.8102 18.514ZM87.8785 18.7983C87.8785 18.514 87.9599 18.2703 88.1227 18.0673C88.4891 17.6613 89.0591 17.6206 89.466 17.9455C89.5069 17.9455 89.5065 17.9861 89.5065 17.9861C89.9138 18.3516 89.9543 19.0013 89.5882 19.4074C89.2219 19.8134 88.5704 19.854 88.1635 19.4885C88.0008 19.2855 87.8785 19.0419 87.8785 18.7983ZM89.6696 28.6656C89.3032 29.0717 88.6927 29.1123 88.2449 28.7468C87.838 28.3814 87.7971 27.7317 88.1635 27.3256C88.5299 26.9195 89.0996 26.8789 89.5065 27.2038C89.5474 27.2038 89.5474 27.2444 89.5474 27.2444C89.9951 27.6098 90.0357 28.2596 89.6696 28.6656ZM96.9556 19.9352C96.9147 20.1789 96.7519 20.4225 96.5078 20.5849C96.3041 20.7473 96.0191 20.788 95.7345 20.7473C95.49 20.7067 95.2458 20.5443 95.0831 20.3007C94.9203 20.0976 94.8794 19.8134 94.9203 19.5292C94.9608 19.2855 95.0831 19.0825 95.2867 18.9607C95.3272 18.9607 95.3272 18.9201 95.3681 18.9201C95.8159 18.6358 96.4669 18.7576 96.7519 19.2043C96.9556 19.4074 96.9961 19.651 96.9556 19.9352Z" fill="#9C4668"/>
<path d="M22.9973 15.7124H22.224V62.2067H22.9973V15.7124Z" fill="#FF8AE2"/>
<path d="M40.7439 15.7124H39.9706V58.9991H40.7439V15.7124Z" fill="#FF8AE2"/>
<path d="M120.279 17.8643H119.505V63.9932H120.279V17.8643Z" fill="#FF8AE2"/>
<path d="M200.627 18.3921H199.854V59.2424H200.627V18.3921Z" fill="#FF8AE2"/>
<path d="M76.5225 34.5535H75.7488V61.1102H76.5225V34.5535Z" fill="#FF8AE2"/>
<path d="M151.173 34.5535H150.399V61.1102H151.173V34.5535Z" fill="#FF8AE2"/>
<path d="M258.914 33.2544H258.141V62.3694H258.914V33.2544Z" fill="#FF8AE2"/>
<path d="M183.409 34.0662H182.636V55.8311H183.409V34.0662Z" fill="#FF8AE2"/>
<path d="M213.408 34.5535H212.635V56.3185H213.408V34.5535Z" fill="#FF8AE2"/>
<path d="M229.242 39.2642H228.469V61.0292H229.242V39.2642Z" fill="#FF8AE2"/>
<path d="M170.751 39.0203H169.977V60.7853H170.751V39.0203Z" fill="#FF8AE2"/>
<path d="M95.2054 38.4519H94.432V60.6636H95.2054V38.4519Z" fill="#FF8AE2"/>
<path d="M63.4567 38.939H62.6834V60.4605H63.4567V38.939Z" fill="#FF8AE2"/>
<path d="M131.553 43.2839H130.78V64.8054H131.553V43.2839Z" fill="#FF8AE2"/>
<path d="M22.9974 44.3805L22.3868 43.7714L40.052 26.1074L40.6625 26.7571L22.9974 44.3805Z" fill="#FF8AE2"/>
<path d="M252.972 57.2117C253.379 58.4299 254.274 59.3233 255.089 59.77V53.7197C253.135 55.7501 252.972 57.171 252.972 57.2117Z" fill="#FF8AE2"/>
<path d="M143.683 59.9325C143.602 59.8109 143.561 59.6482 143.52 59.5266C143.561 59.689 143.602 59.8109 143.683 59.9325Z" fill="#FF8AE2"/>
<path d="M147.143 52.4612C142.747 55.9128 143.683 59.9327 143.683 59.9327C144.375 61.3947 145.84 62.2474 147.183 62.7348L147.143 52.4612Z" fill="#FF8AE2"/>
<path d="M83.1162 45.6799V54.4507C84.0522 53.5981 85.07 52.4612 85.5583 51.2023C85.6806 50.6744 86.0061 48.157 83.1162 45.6799Z" fill="#9C4668"/>
<path d="M56.3336 81.9006C56.3336 81.9006 59.1826 83.2003 58.4907 90.5906C58.1652 93.8391 59.9154 96.844 59.9154 96.844C59.9154 96.844 54.6647 95.5851 53.9319 91.6464C53.3619 88.6819 55.8858 85.7177 56.3336 81.9006Z" fill="#93C2DB"/>
<path d="M51.0829 16.1589C51.0829 16.1589 57.1882 11.4485 54.3388 3.04297C54.3388 3.04297 50.8384 4.26117 51.4489 7.91574C52.1003 11.9764 52.1408 14.494 51.0829 16.1589Z" fill="#93C2DB"/>
<path d="M251.059 49.375C251.059 49.375 248.332 41.2132 256.269 35.1221C256.269 35.1221 258.508 38.2083 255.902 41.4568C253.297 44.7052 251.099 47.1823 251.059 49.375Z" fill="#93C2DB"/>
<path d="M142.259 48.7251C142.259 48.7251 139.328 41.0912 144.945 37.8428C144.945 37.8428 145.596 39.264 145.311 41.6191C144.986 44.0962 143.357 44.4617 142.259 48.7251Z" fill="#93C2DB"/>
<path d="M98.4208 17.0115C98.4208 17.0115 100.416 11.7732 105.137 13.1945C105.137 13.1539 103.875 17.9861 98.4208 17.0115Z" fill="#93C2DB"/>
<path d="M92.8446 15.4684C92.8446 15.4684 89.2222 11.6108 93.0482 7.75317C93.0887 7.75317 96.3859 10.8393 92.8446 15.4684Z" fill="#93C2DB"/>
<path d="M85.6809 17.0116C85.6809 17.0116 80.3894 17.8644 78.6391 13.8444C78.5983 13.8444 83.6048 12.0983 85.6809 17.0116Z" fill="#93C2DB"/>
<path d="M169.489 78.7737C169.489 78.7737 171.484 73.5357 176.205 74.9569C176.205 74.9569 174.943 79.789 169.489 78.7737Z" fill="#93C2DB"/>
<path d="M163.913 77.2718C163.913 77.2718 160.29 73.4139 164.116 69.5564C164.116 69.5564 167.454 72.6425 163.913 77.2718Z" fill="#93C2DB"/>
<path d="M156.749 78.8145C156.749 78.8145 151.458 79.6672 149.707 75.6473C149.667 75.6065 154.673 73.8605 156.749 78.8145Z" fill="#93C2DB"/>
<path d="M223.747 12.1388C223.747 12.1388 221.753 7.91573 225.172 4.54541C225.131 4.54541 227.939 8.11876 223.747 12.1388Z" fill="#93C2DB"/>
<path d="M220.775 12.7481C220.775 12.7481 216.095 12.5044 214.752 7.87528C214.752 7.87528 219.229 7.14437 220.775 12.7481Z" fill="#93C2DB"/>
<path d="M110.917 148.699C110.917 148.699 106.399 151.054 103.305 147.277C103.305 147.277 107.579 144.638 110.917 148.699Z" fill="#93C2DB"/>
<path d="M113.034 151.663C113.034 151.663 112.83 156.901 108.149 157.673C108.149 157.632 107.783 152.678 113.034 151.663Z" fill="#93C2DB"/>
<path d="M172.216 131.278C172.216 131.278 176.449 129.288 179.828 132.7C179.828 132.659 176.246 135.461 172.216 131.278Z" fill="#93C2DB"/>
<path d="M171.606 128.314C171.606 128.314 171.85 123.645 176.49 122.304C176.449 122.304 177.223 126.771 171.606 128.314Z" fill="#93C2DB"/>
<path d="M268.968 72.2771C268.968 72.2771 273.649 73.6984 273.364 78.6524C273.364 78.6116 268.073 78.0838 268.968 72.2771Z" fill="#93C2DB"/>
<path d="M269.823 69.7597C269.823 69.7597 272.835 66.1053 277.516 68.9475C277.516 68.9475 274.871 72.6023 269.823 69.7597Z" fill="#93C2DB"/>
<path d="M7.36731 22.2501C7.36731 22.2501 5.04723 26.6762 0 24.6053C0 24.6053 2.03517 19.7325 7.36731 22.2501Z" fill="#93C2DB"/>
<path d="M9.60586 23.874C9.60586 23.874 13.2285 27.9347 9.60586 31.5893C9.56514 31.5893 5.73905 27.5286 9.60586 23.874Z" fill="#93C2DB"/>
<path d="M162.203 6.04802C162.203 6.04802 157.644 5.07348 157.034 0.322518C156.993 0.322518 161.552 0.281911 162.203 6.04802Z" fill="#93C2DB"/>
<path d="M160.86 8.76848C160.86 8.76848 157.807 12.3012 153.33 10.5958C153.371 10.5958 155.487 6.57574 160.86 8.76848Z" fill="#93C2DB"/>
<path d="M238.034 55.0597C238.034 55.0597 238.889 53.5572 239.174 52.0548C239.703 49.5373 239.947 47.0195 243 46.8979C243.041 46.8979 243.122 53.8012 238.034 55.0597Z" fill="#93C2DB"/>
<path d="M219.961 89.4538C219.961 89.4538 222.892 84.7837 228.021 84.2559C234.33 83.6468 236.446 79.9924 237.627 77.7997C237.627 77.7997 228.957 77.6778 225.578 79.5457C222.119 81.4541 221.142 83.6064 219.961 89.4538Z" fill="#93C2DB"/>
<path d="M126.994 64.3991C127.239 61.6381 127.239 54.7753 126.547 51.73C125.652 47.6693 124.837 47.7912 124.308 47.994C123.779 48.1972 123.901 48.7658 123.616 49.0906C123.291 49.4153 122.802 49.8216 122.151 48.5219C121.5 47.1822 121.011 43.3651 119.79 42.025C118.528 40.6445 117.714 42.8776 117.145 43.4055C116.574 43.9333 116.493 44.2989 114.906 43.2431C113.318 42.1873 109.004 39.9946 107.172 41.4159C105.381 42.8372 107.335 44.624 107.905 44.9891C109.085 45.7609 112.87 46.9383 113.155 47.5881C113.644 48.7658 111.08 48.8874 110.591 49.7404C110.103 50.593 110.754 51.4864 111.934 51.7707C113.115 52.0547 116.289 51.4456 117.633 51.7707C118.935 52.0955 118.65 52.5422 118.202 52.8265C117.958 52.9889 115.679 54.2474 116.045 55.3439C116.452 56.6433 117.755 57.0495 120.93 56.7652C123.331 56.5621 125.122 58.2677 125.652 59.6482C126.181 61.0694 126.994 64.3991 126.994 64.3991Z" fill="#93C2DB"/>
<path d="M110.957 42.8374C110.713 42.6751 110.469 42.5531 110.388 42.5127L109.94 42.797C109.94 42.797 110.021 42.8782 110.672 43.2437C121.011 49.4159 125.285 55.9532 127.076 60.6638C127.076 60.2578 127.076 59.8516 127.076 59.4456C125.081 54.7351 120.645 48.6037 110.957 42.8374Z" fill="#FF8AE2"/>
<path d="M179.339 46.776C179.339 46.776 178.647 40.4822 179.706 35.4468C180.357 32.4013 182.392 28.3813 185.282 25.1327C188.538 21.5188 189.678 20.9097 190.411 20.9097C190.736 20.9097 190.533 21.397 190.411 21.8842C190.085 23.0618 189.8 23.9552 189.434 25.5794C188.742 28.8686 189.434 30.168 188.416 31.8328C187.846 32.8074 184.427 34.0662 185.323 35.2844C185.852 35.9747 188.66 33.1729 189.434 34.1068C190.207 35.0001 188.701 39.1825 186.666 40.4414C180.845 43.9742 179.339 46.776 179.339 46.776Z" fill="#93C2DB"/>
<path d="M202.174 87.464V84.2563H183.939V89.6975H187.236V93.1083H183.939H183.858V96.4787H180.56H190.573V93.1083H205.389V87.464H202.174Z" fill="#93C2DB"/>
<path d="M123.047 98.1435H119.668V90.3877H114.581V117.797H117.877V114.427H123.047V111.259V104.722H129.193V102.163H134.037V98.1435H123.047Z" fill="#93C2DB"/>
<path d="M168.797 110.488H165.418V113.858H168.797V110.488Z" fill="#93C2DB"/>
<path d="M136.356 111.259H132.978V114.63H136.356V111.259Z" fill="#93C2DB"/>
<path d="M139.735 114.63H136.357V118H139.735V114.63Z" fill="#93C2DB"/>
<path d="M162.04 120.639V117.228H165.419V113.858H162.447V106.508H158.54V113.858H149.056V116.985H145.881V120.639H150.399H162.04Z" fill="#93C2DB"/>
<path d="M152.597 87.667H149.219V91.037H152.597V87.667Z" fill="#93C2DB"/>
<path d="M155.975 84.2563H152.597V87.6264H155.975V84.2563Z" fill="#93C2DB"/>
<path d="M108.19 87.8696H103.387V90.4278H108.19V87.8696Z" fill="#93C2DB"/>
<path d="M92.9665 91.8494H89.5883V88.479H86.2097V91.8494H89.5883V98.184V104.722H104.689V98.184H92.9665V91.8494ZM96.3856 101.311V104.681H93.0074V101.311H96.3856Z" fill="#93C2DB"/>
<path d="M181.669 112.178V109.336H178.819V112.178H181.669Z" fill="#93C2DB"/>
<path d="M84.7854 78.7739H81.7327V81.6976H84.7854V78.7739Z" fill="#93C2DB"/>
<path d="M132.164 9.0973V6.13306H129.193V9.0973H132.164Z" fill="#93C2DB"/>
<path d="M187.841 12.9145V9.9502H184.87V12.9145H187.841Z" fill="#93C2DB"/>
<path d="M281 54.0315V51.0674H278.029V54.0315H281Z" fill="#93C2DB"/>
<path d="M178.338 146.795H181.309V143.831H178.338V146.795Z" fill="#93C2DB"/>
<path d="M128.524 157.604H131.496V154.64H128.524V157.604Z" fill="#93C2DB"/>
<path d="M191.926 70.6155V67.7729H189.076V70.6155H191.926Z" fill="#93C2DB"/>
<path d="M220.858 75.2416V72.3994H218.009V75.2416H220.858Z" fill="#93C2DB"/>
<path d="M110.46 72.6975H113.309V69.855H110.46V72.6975Z" fill="#93C2DB"/>
<path d="M105.932 121.686V118.843H103.083V121.686H105.932Z" fill="#93C2DB"/>
<path d="M190.573 93.1082V96.4786H186.259V120.639H191.469V117.472H194.644V93.1082H190.573Z" fill="#9C4668"/>
<path d="M155.975 84.2563V87.6672H152.597V91.0376H149.219H145.84V103.098V99.768H149.26V101.392H153.493V99.768V93.1083H164.767V90.4282H167.739V84.2563H155.975Z" fill="#9C4668"/>
<path d="M113.325 75.5564H116.175V72.7139H113.325V75.5564Z" fill="#FF8AE2"/>
<path d="M132.897 87.3016V84.256H121.174V81.6978H112.789V90.3877H119.668V98.1436H123.047V92.5804H126.506V87.3016H132.897Z" fill="#9C4668"/>
<path d="M89.5883 108.092V104.722V98.1436V91.8494H86.2101V88.4794H89.5883V85.0682H92.9668V84.256V81.7385H84.7854V85.1901V85.5556V118.772H92.9668V108.092H89.5883Z" fill="#9C4668"/>
<path d="M84.7854 118.771H81.7327V121.695H84.7854V118.771Z" fill="#9C4668"/>
<path d="M205.308 84.2563H202.133V87.4236H205.308V84.2563Z" fill="#9C4668"/>
<path d="M208.483 87.4639H205.308V93.1082H208.483V87.4639Z" fill="#9C4668"/>
<path d="M208.483 81.0884H205.308V84.2557H208.483V81.0884Z" fill="#9C4668"/>
<path d="M165.419 117.228H162.04V120.599H165.419V117.228Z" fill="#9C4668"/>
<path d="M123.047 117.797H117.877V120.639H123.047V117.797Z" fill="#9C4668"/>
<path d="M2.97151 34.5678V31.6035H0.000160217V34.5678H2.97151Z" fill="#FF8AE2"/>
<path d="M86.2699 5.56292V2.59863H83.2986V5.56292H86.2699Z" fill="#FF8AE2"/>
<path d="M276.562 19.8732V16.9089H273.591V19.8732H276.562Z" fill="#FF8AE2"/>
<path d="M250.025 86.3073H252.996V83.3428H250.025V86.3073Z" fill="#FF8AE2"/>
<path d="M252.929 83.4506H255.901V80.4861H252.929V83.4506Z" fill="#FF8AE2"/>
<path d="M69.8281 107.977H72.7994V105.013H69.8281V107.977Z" fill="#FF8AE2"/>
<path d="M102.654 136.394H105.626V133.43H102.654V136.394Z" fill="#FF8AE2"/>
<path d="M142.909 123.586H145.881V120.621H142.909V123.586Z" fill="#FF8AE2"/>
<path d="M194.511 78.2503V75.4077H191.661V78.2503H194.511Z" fill="#FF8AE2"/>
<path d="M217.968 78.1005V75.2583H215.119V78.1005H217.968Z" fill="#FF8AE2"/>
<path d="M140.386 84.2563H132.897V87.3017H126.506V92.5805H136.967V89.0885H140.386V84.2563Z" fill="#FF8AE2"/>
<path d="M143.439 81.373H140.386V84.2968H143.439V81.373Z" fill="#FF8AE2"/>
<path d="M237.423 7.99707H234.249V11.1644H237.423V7.99707Z" fill="#FF8AE2"/>
<path d="M197.819 120.639H194.644V123.806H197.819V120.639Z" fill="#FF8AE2"/>
<path d="M194.644 117.472H191.469V120.639H194.644V117.472Z" fill="#FF8AE2"/>
<path d="M168.797 110.488V104.235H166.559V101.392H149.26V99.7676H145.84V103.138H149.219V106.508H158.54H160.331H162.448V113.858H165.419V110.488H168.797Z" fill="#FF8AE2"/>
<path d="M152.597 84.2563H149.219V87.6264H152.597V84.2563Z" fill="#FF8AE2"/>
<path d="M149.219 87.667H145.84V91.037H149.219V87.667Z" fill="#FF8AE2"/>
<path d="M133.996 102.164H129.193V104.722H133.996V102.164Z" fill="#FF8AE2"/>
<path d="M81.7323 121.695H78.5578V124.862H81.7323V121.695Z" fill="#FF8AE2"/>
<path d="M96.345 101.311H92.9665V104.681H96.345V101.311Z" fill="#FF8AE2"/>
<path d="M92.9669 104.721H89.5883V108.092H92.9669V104.721Z" fill="#FF8AE2"/>
<path d="M100.008 84.256V81.6978H96.3859H92.9669V85.0682H89.5883V91.8494H92.9669V90.4281H103.387V87.8699H108.231V84.256H100.008Z" fill="#FF8AE2"/>
<path d="M190.614 86.3271H187.236V89.6976H190.614V86.3271Z" fill="#FF8AE2"/>
<path d="M183.939 89.6975V84.2563H172.827V93.1083H180.479V96.4787H183.857V93.1083H183.939H187.236V89.6975H183.939Z" fill="#FF8AE2"/>
<path d="M136.356 118V114.63H132.978V111.259H123.047V114.427H117.877V117.797H123.047V118.772V120.639H139.776V118H136.356Z" fill="#FF8AE2"/>
<path d="M168.797 113.858H165.418V117.228H168.797V113.858Z" fill="#9C4668"/>
<path d="M184.829 15.9008V12.9365H181.858V15.9008H184.829Z" fill="#9C4668"/>
<path d="M14.1259 43.2563V40.2917H11.1546V43.2563H14.1259Z" fill="#9C4668"/>
<path d="M92.9855 74.0838V71.1196H90.0142V74.0838H92.9855Z" fill="#9C4668"/>
<path d="M59.7775 73.1603V70.1958H56.8062V73.1603H59.7775Z" fill="#9C4668"/>
<path d="M278.028 57.0179V54.0537H275.057V57.0179H278.028Z" fill="#9C4668"/>
<path d="M175.386 143.81H178.358V140.846H175.386V143.81Z" fill="#9C4668"/>
<path d="M205.421 108.604H208.392V105.639H205.421V108.604Z" fill="#9C4668"/>
<path d="M125.531 154.658H128.502V151.694H125.531V154.658Z" fill="#FF8AE2"/>
<path d="M178.778 114.996V112.154H175.929V114.996H178.778Z" fill="#9C4668"/>
<path d="M132.734 75.8098H129.559V78.9771H132.734V75.8098Z" fill="#9C4668"/>
<path d="M103.083 124.544V121.702H100.233V124.544H103.083Z" fill="#9C4668"/>
<path d="M153.167 145.775L151.213 143.826L147.957 147.074H145.922V139.724L147.672 137.978L148.324 137.329L149.015 136.679L150.359 135.339V133.309V129.979L147.469 127.136L143.48 131.116L144.172 131.766L146.166 129.776L147.672 131.319V136.638L143.602 140.699L143.276 141.024V147.683H145.922H150.684H151.213L153.167 145.775Z" fill="#9C4668"/>
<path d="M150.358 133.309V135.339L149.015 136.679L148.323 137.329L147.672 137.978L145.921 139.724V147.074H147.021V139.724L148.771 137.978L149.381 137.329L150.073 136.679L151.417 135.339V133.309V129.979L148.527 127.136H147.468L150.358 129.979V133.309Z" fill="#FF8AE2"/>
<path d="M152.312 143.826H151.213L153.167 145.775L151.213 147.683H152.312L154.225 145.775L152.312 143.826Z" fill="#FF8AE2"/>
<path d="M146.695 130.345L146.166 129.776L144.172 131.766H145.23L146.695 130.345Z" fill="#FF8AE2"/>
<path d="M163.831 138.872V143.135H160.901V141.917V138.709H158.825V132.578H155.08V141.917H156.993V147.927H159.843H160.901H165.907V145.044V143.135V138.872H163.831Z" fill="#93C2DB"/>
<path d="M167.454 132.537V130.019H164.767V132.578H163.831V138.872H165.907V143.135V144.841H167.454V141.917H168.757V132.537H167.454Z" fill="#FF8AE2"/>
<path d="M165.581 127.258H159.232V128.801H156.993V132.578H158.824V138.709H160.901V132.578H164.767V130.019H165.581V127.258Z" fill="#9C4668"/>
<path d="M124.675 145.775L122.721 143.826L119.465 147.074H117.43V139.724L119.18 137.978L119.831 137.329L120.523 136.679L121.866 135.339V133.309V129.979L118.976 127.136L114.987 131.116L115.679 131.766L117.674 129.776L119.18 131.319V136.638L115.11 140.699L114.784 141.024V147.683H117.43H122.192H122.721L124.675 145.775Z" fill="#9C4668"/>
<path d="M121.866 133.309V135.339L120.523 136.679L119.831 137.329L119.179 137.978L117.429 139.724V147.074H118.528V139.724L120.279 137.978L120.889 137.329L121.581 136.679L122.924 135.339V133.309V129.979L120.034 127.136H118.976L121.866 129.979V133.309Z" fill="#FF8AE2"/>
<path d="M118.203 130.345L117.674 129.776L115.679 131.766H116.737L118.203 130.345Z" fill="#FF8AE2"/>
<path d="M123.82 143.826H122.721L124.675 145.775L122.721 147.683H123.82L125.733 145.775L123.82 143.826Z" fill="#FF8AE2"/>
<path d="M135.339 138.872V143.135H132.408V141.917V138.709H130.332V132.578H126.588V141.917H128.501V147.927H131.35H132.408H137.415V145.044V143.135V138.872H135.339Z" fill="#93C2DB"/>
<path d="M138.961 132.537V130.019H136.275V132.578H135.339V138.872H137.415V143.135V144.841H138.961V141.917H140.264V132.537H138.961Z" fill="#FF8AE2"/>
<path d="M137.089 127.258H130.739V128.801H128.501V132.578H130.332V138.709H132.408V132.578H136.275V130.019H137.089V127.258Z" fill="#9C4668"/>
<path d="M121.5 88.7226C121.612 88.7226 121.703 88.6319 121.703 88.5198C121.703 88.4077 121.612 88.3167 121.5 88.3167C121.388 88.3167 121.296 88.4077 121.296 88.5198C121.296 88.6319 121.388 88.7226 121.5 88.7226Z" fill="#FF8AE2"/>
<path d="M121.052 94.0419C121.164 94.0419 121.256 93.9509 121.256 93.8388C121.256 93.7266 121.164 93.636 121.052 93.636C120.939 93.636 120.848 93.7266 120.848 93.8388C120.848 93.9509 120.939 94.0419 121.052 94.0419Z" fill="#FF8AE2"/>
<path d="M121.947 96.925C122.06 96.925 122.151 96.8343 122.151 96.7222C122.151 96.6101 122.06 96.519 121.947 96.519C121.835 96.519 121.744 96.6101 121.744 96.7222C121.744 96.8343 121.835 96.925 121.947 96.925Z" fill="#FF8AE2"/>
<path d="M120.889 91.6058C121.002 91.6058 121.093 91.5148 121.093 91.4026C121.093 91.2905 121.002 91.1995 120.889 91.1995C120.777 91.1995 120.686 91.2905 120.686 91.4026C120.686 91.5148 120.777 91.6058 120.889 91.6058Z" fill="#FF8AE2"/>
<path d="M122.721 86.7329C122.833 86.7329 122.924 86.6419 122.924 86.5298C122.924 86.4177 122.833 86.3267 122.721 86.3267C122.608 86.3267 122.517 86.4177 122.517 86.5298C122.517 86.6419 122.608 86.7329 122.721 86.7329Z" fill="#FF8AE2"/>
<path d="M118.732 84.4994C118.844 84.4994 118.935 84.4084 118.935 84.2963C118.935 84.1842 118.844 84.0935 118.732 84.0935C118.62 84.0935 118.528 84.1842 118.528 84.2963C118.528 84.4084 118.62 84.4994 118.732 84.4994Z" fill="#FF8AE2"/>
<path d="M124.512 91.362C124.624 91.362 124.715 91.2713 124.715 91.1592C124.715 91.0471 124.624 90.9561 124.512 90.9561C124.399 90.9561 124.308 91.0471 124.308 91.1592C124.308 91.2713 124.399 91.362 124.512 91.362Z" fill="#FF8AE2"/>
<path d="M127.402 85.7177C127.514 85.7177 127.605 85.627 127.605 85.5149C127.605 85.4028 127.514 85.3118 127.402 85.3118C127.289 85.3118 127.198 85.4028 127.198 85.5149C127.198 85.627 127.289 85.7177 127.402 85.7177Z" fill="#FF8AE2"/>
<path d="M131.35 86.4889C131.462 86.4889 131.553 86.3983 131.553 86.2862C131.553 86.174 131.462 86.083 131.35 86.083C131.238 86.083 131.146 86.174 131.146 86.2862C131.146 86.3983 131.238 86.4889 131.35 86.4889Z" fill="#FF8AE2"/>
<path d="M114.581 87.504C114.693 87.504 114.784 87.413 114.784 87.3009C114.784 87.1888 114.693 87.0981 114.581 87.0981C114.468 87.0981 114.377 87.1888 114.377 87.3009C114.377 87.413 114.468 87.504 114.581 87.504Z" fill="#FF8AE2"/>
<path d="M117.715 89.2911C117.827 89.2911 117.918 89.2 117.918 89.0879C117.918 88.9758 117.827 88.8848 117.715 88.8848C117.602 88.8848 117.511 88.9758 117.511 89.0879C117.511 89.2 117.602 89.2911 117.715 89.2911Z" fill="#FF8AE2"/>
<path d="M117.266 86.6516C117.379 86.6516 117.47 86.5606 117.47 86.4485C117.47 86.3364 117.379 86.2454 117.266 86.2454C117.154 86.2454 117.063 86.3364 117.063 86.4485C117.063 86.5606 117.154 86.6516 117.266 86.6516Z" fill="#FF8AE2"/>
<path d="M114.295 83.8092C114.408 83.8092 114.499 83.7182 114.499 83.6061C114.499 83.494 114.408 83.4033 114.295 83.4033C114.183 83.4033 114.092 83.494 114.092 83.6061C114.092 83.7182 114.183 83.8092 114.295 83.8092Z" fill="#FF8AE2"/>
<path d="M124.308 87.9913C124.421 87.9913 124.512 87.9007 124.512 87.7886C124.512 87.6765 124.421 87.5854 124.308 87.5854C124.196 87.5854 124.105 87.6765 124.105 87.7886C124.105 87.9007 124.196 87.9913 124.308 87.9913Z" fill="#FF8AE2"/>
<path d="M147.55 94.4887C147.662 94.4887 147.753 94.3977 147.753 94.2855C147.753 94.1734 147.662 94.0828 147.55 94.0828C147.437 94.0828 147.347 94.1734 147.347 94.2855C147.347 94.3977 147.437 94.4887 147.55 94.4887Z" fill="#FF8AE2"/>
<path d="M158.947 88.5602C159.06 88.5602 159.151 88.4692 159.151 88.3571C159.151 88.2449 159.06 88.1543 158.947 88.1543C158.835 88.1543 158.743 88.2449 158.743 88.3571C158.743 88.4692 158.835 88.5602 158.947 88.5602Z" fill="#FF8AE2"/>
<path d="M151.539 97.8996C151.651 97.8996 151.743 97.8089 151.743 97.6968C151.743 97.5847 151.651 97.4937 151.539 97.4937C151.427 97.4937 151.335 97.5847 151.335 97.6968C151.335 97.8089 151.427 97.8996 151.539 97.8996Z" fill="#FF8AE2"/>
<path d="M149.87 96.1536C149.982 96.1536 150.073 96.0626 150.073 95.9505C150.073 95.8383 149.982 95.7473 149.87 95.7473C149.758 95.7473 149.666 95.8383 149.666 95.9505C149.666 96.0626 149.758 96.1536 149.87 96.1536Z" fill="#FF8AE2"/>
<path d="M151.987 100.539C152.099 100.539 152.19 100.448 152.19 100.336C152.19 100.224 152.099 100.133 151.987 100.133C151.874 100.133 151.783 100.224 151.783 100.336C151.783 100.448 151.874 100.539 151.987 100.539Z" fill="#FF8AE2"/>
<path d="M162.488 90.8339C162.6 90.8339 162.692 90.7433 162.692 90.6311C162.692 90.519 162.6 90.428 162.488 90.428C162.376 90.428 162.284 90.519 162.284 90.6311C162.284 90.7433 162.376 90.8339 162.488 90.8339Z" fill="#FF8AE2"/>
<path d="M147.753 98.5898C147.866 98.5898 147.957 98.4991 147.957 98.387C147.957 98.2748 147.866 98.1838 147.753 98.1838C147.641 98.1838 147.55 98.2748 147.55 98.387C147.55 98.4991 147.641 98.5898 147.753 98.5898Z" fill="#FF8AE2"/>
<path d="M158.743 91.6058C158.856 91.6058 158.947 91.5148 158.947 91.4026C158.947 91.2905 158.856 91.1995 158.743 91.1995C158.631 91.1995 158.54 91.2905 158.54 91.4026C158.54 91.5148 158.631 91.6058 158.743 91.6058Z" fill="#FF8AE2"/>
<path d="M163.668 87.5452C163.781 87.5452 163.872 87.4542 163.872 87.342C163.872 87.2299 163.781 87.1389 163.668 87.1389C163.556 87.1389 163.465 87.2299 163.465 87.342C163.465 87.4542 163.556 87.5452 163.668 87.5452Z" fill="#FF8AE2"/>
<path d="M165.5 86.1241C165.613 86.1241 165.704 86.033 165.704 85.9209C165.704 85.8088 165.613 85.7178 165.5 85.7178C165.388 85.7178 165.297 85.8088 165.297 85.9209C165.297 86.033 165.388 86.1241 165.5 86.1241Z" fill="#FF8AE2"/>
<path d="M155.284 89.2911C155.396 89.2911 155.487 89.2 155.487 89.0879C155.487 88.9758 155.396 88.8848 155.284 88.8848C155.171 88.8848 155.08 88.9758 155.08 89.0879C155.08 89.2 155.171 89.2911 155.284 89.2911Z" fill="#FF8AE2"/>
<path d="M149.056 92.4582C149.168 92.4582 149.26 92.3672 149.26 92.255C149.26 92.1429 149.168 92.0522 149.056 92.0522C148.943 92.0522 148.853 92.1429 148.853 92.255C148.853 92.3672 148.943 92.4582 149.056 92.4582Z" fill="#FF8AE2"/>
<path d="M160.697 86.4889C160.81 86.4889 160.901 86.3983 160.901 86.2862C160.901 86.174 160.81 86.083 160.697 86.083C160.585 86.083 160.494 86.174 160.494 86.2862C160.494 86.3983 160.585 86.4889 160.697 86.4889Z" fill="#FF8AE2"/>
<path d="M156.993 85.7177C157.106 85.7177 157.197 85.627 157.197 85.5149C157.197 85.4028 157.106 85.3118 156.993 85.3118C156.881 85.3118 156.79 85.4028 156.79 85.5149C156.79 85.627 156.881 85.7177 156.993 85.7177Z" fill="#FF8AE2"/>
<path d="M151.743 93.9607C151.855 93.9607 151.946 93.8697 151.946 93.7576C151.946 93.6455 151.855 93.5544 151.743 93.5544C151.63 93.5544 151.539 93.6455 151.539 93.7576C151.539 93.8697 151.63 93.9607 151.743 93.9607Z" fill="#FF8AE2"/>
<path d="M192.69 109.554C192.802 109.554 192.893 109.463 192.893 109.35C192.893 109.238 192.802 109.148 192.69 109.148C192.577 109.148 192.486 109.238 192.486 109.35C192.486 109.463 192.577 109.554 192.69 109.554Z" fill="#FF8AE2"/>
<path d="M192.405 102.082C192.517 102.082 192.608 101.991 192.608 101.879C192.608 101.767 192.517 101.676 192.405 101.676C192.293 101.676 192.201 101.767 192.201 101.879C192.201 101.991 192.293 102.082 192.405 102.082Z" fill="#FF8AE2"/>
<path d="M192.445 96.3971C192.558 96.3971 192.649 96.3065 192.649 96.1944C192.649 96.0822 192.558 95.9912 192.445 95.9912C192.333 95.9912 192.242 96.0822 192.242 96.1944C192.242 96.3065 192.333 96.3971 192.445 96.3971Z" fill="#FF8AE2"/>
<path d="M191.631 105.696C191.743 105.696 191.835 105.605 191.835 105.493C191.835 105.381 191.743 105.29 191.631 105.29C191.519 105.29 191.428 105.381 191.428 105.493C191.428 105.605 191.519 105.696 191.631 105.696Z" fill="#FF8AE2"/>
<path d="M189.718 115.523C189.831 115.523 189.922 115.432 189.922 115.32C189.922 115.208 189.831 115.117 189.718 115.117C189.606 115.117 189.515 115.208 189.515 115.32C189.515 115.432 189.606 115.523 189.718 115.523Z" fill="#FF8AE2"/>
<path d="M188.741 118.771C188.854 118.771 188.945 118.681 188.945 118.568C188.945 118.456 188.854 118.365 188.741 118.365C188.629 118.365 188.538 118.456 188.538 118.568C188.538 118.681 188.629 118.771 188.741 118.771Z" fill="#FF8AE2"/>
<path d="M189.718 99.3209C189.831 99.3209 189.922 99.2299 189.922 99.1178C189.922 99.0057 189.831 98.915 189.718 98.915C189.606 98.915 189.515 99.0057 189.515 99.1178C189.515 99.2299 189.606 99.3209 189.718 99.3209Z" fill="#FF8AE2"/>
<path d="M193.056 114.954C193.169 114.954 193.259 114.863 193.259 114.751C193.259 114.639 193.169 114.549 193.056 114.549C192.944 114.549 192.852 114.639 192.852 114.751C192.852 114.863 192.944 114.954 193.056 114.954Z" fill="#FF8AE2"/>
<path d="M189.963 109.432C190.075 109.432 190.166 109.341 190.166 109.229C190.166 109.117 190.075 109.026 189.963 109.026C189.85 109.026 189.759 109.117 189.759 109.229C189.759 109.341 189.85 109.432 189.963 109.432Z" fill="#FF8AE2"/>
<path d="M188.253 112.843C188.366 112.843 188.456 112.752 188.456 112.64C188.456 112.528 188.366 112.437 188.253 112.437C188.141 112.437 188.05 112.528 188.05 112.64C188.05 112.752 188.141 112.843 188.253 112.843Z" fill="#FF8AE2"/>
<path d="M187.724 102.813C187.836 102.813 187.927 102.722 187.927 102.61C187.927 102.498 187.836 102.407 187.724 102.407C187.611 102.407 187.52 102.498 187.52 102.61C187.52 102.722 187.611 102.813 187.724 102.813Z" fill="#FF8AE2"/>
<path d="M85.9247 117.756C86.0371 117.756 86.1283 117.666 86.1283 117.553C86.1283 117.441 86.0371 117.35 85.9247 117.35C85.8123 117.35 85.7214 117.441 85.7214 117.553C85.7214 117.666 85.8123 117.756 85.9247 117.756Z" fill="#FF8AE2"/>
<path d="M91.9896 116.66C92.102 116.66 92.1932 116.569 92.1932 116.457C92.1932 116.345 92.102 116.254 91.9896 116.254C91.8771 116.254 91.7863 116.345 91.7863 116.457C91.7863 116.569 91.8771 116.66 91.9896 116.66Z" fill="#FF8AE2"/>
<path d="M86.1283 94.8134C86.2407 94.8134 86.3316 94.7224 86.3316 94.6103C86.3316 94.4981 86.2407 94.4075 86.1283 94.4075C86.0159 94.4075 85.9247 94.4981 85.9247 94.6103C85.9247 94.7224 86.0159 94.8134 86.1283 94.8134Z" fill="#FF8AE2"/>
<path d="M88.0413 87.1796C88.1537 87.1796 88.2449 87.0886 88.2449 86.9765C88.2449 86.8643 88.1537 86.7737 88.0413 86.7737C87.9289 86.7737 87.8377 86.8643 87.8377 86.9765C87.8377 87.0886 87.9289 87.1796 88.0413 87.1796Z" fill="#FF8AE2"/>
<path d="M91.5009 83.5656C91.6133 83.5656 91.7046 83.4746 91.7046 83.3624C91.7046 83.2503 91.6133 83.1597 91.5009 83.1597C91.3885 83.1597 91.2976 83.2503 91.2976 83.3624C91.2976 83.4746 91.3885 83.5656 91.5009 83.5656Z" fill="#FF8AE2"/>
<path d="M86.7389 107.077C86.8513 107.077 86.9421 106.986 86.9421 106.874C86.9421 106.762 86.8513 106.671 86.7389 106.671C86.6265 106.671 86.5352 106.762 86.5352 106.874C86.5352 106.986 86.6265 107.077 86.7389 107.077Z" fill="#FF8AE2"/>
<path d="M86.5757 115.239C86.6881 115.239 86.7794 115.148 86.7794 115.036C86.7794 114.924 86.6881 114.833 86.5757 114.833C86.4633 114.833 86.3725 114.924 86.3725 115.036C86.3725 115.148 86.4633 115.239 86.5757 115.239Z" fill="#FF8AE2"/>
<path d="M87.3494 100.945C87.4618 100.945 87.5527 100.854 87.5527 100.742C87.5527 100.63 87.4618 100.539 87.3494 100.539C87.237 100.539 87.1458 100.63 87.1458 100.742C87.1458 100.854 87.237 100.945 87.3494 100.945Z" fill="#FF8AE2"/>
<path d="M89.6288 113.452C89.7412 113.452 89.832 113.361 89.832 113.249C89.832 113.137 89.7412 113.046 89.6288 113.046C89.5164 113.046 89.4252 113.137 89.4252 113.249C89.4252 113.361 89.5164 113.452 89.6288 113.452Z" fill="#FF8AE2"/>
<path d="M88.4482 116.335C88.5606 116.335 88.6519 116.244 88.6519 116.132C88.6519 116.02 88.5606 115.929 88.4482 115.929C88.3358 115.929 88.245 116.02 88.245 116.132C88.245 116.244 88.3358 116.335 88.4482 116.335Z" fill="#FF8AE2"/>
<path d="M89.466 83.241C89.5784 83.241 89.6697 83.15 89.6697 83.0379C89.6697 82.9257 89.5784 82.8347 89.466 82.8347C89.3536 82.8347 89.2628 82.9257 89.2628 83.0379C89.2628 83.15 89.3536 83.241 89.466 83.241Z" fill="#FF8AE2"/>
<path d="M88.4077 108.904C88.5201 108.904 88.6113 108.813 88.6113 108.701C88.6113 108.589 88.5201 108.498 88.4077 108.498C88.2953 108.498 88.2041 108.589 88.2041 108.701C88.2041 108.813 88.2953 108.904 88.4077 108.904Z" fill="#FF8AE2"/>
<path d="M91.2571 110.406C91.3695 110.406 91.4604 110.315 91.4604 110.203C91.4604 110.091 91.3695 110 91.2571 110C91.1447 110 91.0535 110.091 91.0535 110.203C91.0535 110.315 91.1447 110.406 91.2571 110.406Z" fill="#FF8AE2"/>
<path d="M86.1283 83.8905C86.2407 83.8905 86.3316 83.7999 86.3316 83.6878C86.3316 83.5756 86.2407 83.4846 86.1283 83.4846C86.0159 83.4846 85.9247 83.5756 85.9247 83.6878C85.9247 83.7999 86.0159 83.8905 86.1283 83.8905Z" fill="#FF8AE2"/>
<path d="M86.983 104.316C87.0954 104.316 87.1863 104.225 87.1863 104.113C87.1863 104.001 87.0954 103.91 86.983 103.91C86.8706 103.91 86.7794 104.001 86.7794 104.113C86.7794 104.225 86.8706 104.316 86.983 104.316Z" fill="#FF8AE2"/>
<path d="M157.97 130.263C158.105 130.263 158.214 130.154 158.214 130.019C158.214 129.885 158.105 129.776 157.97 129.776C157.835 129.776 157.726 129.885 157.726 130.019C157.726 130.154 157.835 130.263 157.97 130.263Z" fill="#FF8AE2"/>
<path d="M162.692 128.436C162.826 128.436 162.936 128.327 162.936 128.192C162.936 128.058 162.826 127.949 162.692 127.949C162.557 127.949 162.448 128.058 162.448 128.192C162.448 128.327 162.557 128.436 162.692 128.436Z" fill="#FF8AE2"/>
<path d="M160.86 130.669C160.995 130.669 161.104 130.56 161.104 130.426C161.104 130.291 160.995 130.182 160.86 130.182C160.725 130.182 160.616 130.291 160.616 130.426C160.616 130.56 160.725 130.669 160.86 130.669Z" fill="#FF8AE2"/>
<path d="M163.587 131.4C163.722 131.4 163.831 131.291 163.831 131.156C163.831 131.022 163.722 130.913 163.587 130.913C163.452 130.913 163.343 131.022 163.343 131.156C163.343 131.291 163.452 131.4 163.587 131.4Z" fill="#FF8AE2"/>
<path d="M160.086 132.252C160.221 132.252 160.331 132.144 160.331 132.009C160.331 131.875 160.221 131.765 160.086 131.765C159.952 131.765 159.842 131.875 159.842 132.009C159.842 132.144 159.952 132.252 160.086 132.252Z" fill="#FF8AE2"/>
<path d="M159.842 137.938C159.977 137.938 160.086 137.829 160.086 137.694C160.086 137.559 159.977 137.45 159.842 137.45C159.708 137.45 159.598 137.559 159.598 137.694C159.598 137.829 159.708 137.938 159.842 137.938Z" fill="#FF8AE2"/>
<path d="M159.476 134.892C159.611 134.892 159.72 134.783 159.72 134.649C159.72 134.514 159.611 134.405 159.476 134.405C159.341 134.405 159.232 134.514 159.232 134.649C159.232 134.783 159.341 134.892 159.476 134.892Z" fill="#FF8AE2"/>
<path d="M129.478 130.263C129.613 130.263 129.722 130.154 129.722 130.019C129.722 129.885 129.613 129.776 129.478 129.776C129.343 129.776 129.233 129.885 129.233 130.019C129.233 130.154 129.343 130.263 129.478 130.263Z" fill="#FF8AE2"/>
<path d="M130.984 131.4C131.119 131.4 131.228 131.291 131.228 131.156C131.228 131.022 131.119 130.913 130.984 130.913C130.849 130.913 130.739 131.022 130.739 131.156C130.739 131.291 130.849 131.4 130.984 131.4Z" fill="#FF8AE2"/>
<path d="M135.339 128.679C135.474 128.679 135.583 128.57 135.583 128.436C135.583 128.301 135.474 128.192 135.339 128.192C135.204 128.192 135.095 128.301 135.095 128.436C135.095 128.57 135.204 128.679 135.339 128.679Z" fill="#FF8AE2"/>
<path d="M133.955 130.913C134.09 130.913 134.199 130.804 134.199 130.669C134.199 130.535 134.09 130.425 133.955 130.425C133.82 130.425 133.711 130.535 133.711 130.669C133.711 130.804 133.82 130.913 133.955 130.913Z" fill="#FF8AE2"/>
<path d="M131.35 133.796C131.485 133.796 131.594 133.687 131.594 133.552C131.594 133.418 131.485 133.308 131.35 133.308C131.215 133.308 131.106 133.418 131.106 133.552C131.106 133.687 131.215 133.796 131.35 133.796Z" fill="#FF8AE2"/>
<path d="M131.594 129.735C131.729 129.735 131.838 129.626 131.838 129.491C131.838 129.357 131.729 129.248 131.594 129.248C131.459 129.248 131.35 129.357 131.35 129.491C131.35 129.626 131.459 129.735 131.594 129.735Z" fill="#FF8AE2"/>
<path d="M131.228 137.166C131.363 137.166 131.472 137.057 131.472 136.922C131.472 136.788 131.363 136.679 131.228 136.679C131.093 136.679 130.984 136.788 130.984 136.922C130.984 137.057 131.093 137.166 131.228 137.166Z" fill="#FF8AE2"/>
<path d="M254.519 19.8134C254.519 19.2449 253.42 19.0013 253.216 18.6358C253.094 18.4328 253.461 18.2704 253.745 18.3109C253.949 18.3109 255.699 18.6358 256.92 18.6358C261.072 18.7576 262.171 17.7424 262.13 17.174C262.089 16.6055 260.502 16.3212 260.258 15.9558C260.054 15.5903 260.339 15.2249 261.764 14.9812C263.229 14.7376 265.753 14.6157 267.422 13.8442C269.091 13.0727 268.724 12.1793 266.608 11.5297C265.834 11.2048 266.323 10.7175 267.788 9.58054C269.253 8.44356 272.876 4.87017 271.736 3.00229C270.76 1.62166 268.968 2.43379 267.706 3.73319C266.73 4.70777 264.817 6.69747 264.125 6.7381C262.863 6.85992 264.003 4.95139 263.351 4.26107C262.7 3.57078 261.316 4.78899 260.746 5.80416C260.176 6.81929 259.729 8.44356 259.118 9.62117C258.467 10.9206 257.816 10.4333 257.612 9.9866C257.449 9.53995 257.734 7.71264 256.472 7.50961C255.374 7.34717 254.071 10.149 252.972 11.7327C252.565 12.3418 252.036 12.9103 251.466 13.3975C251.14 13.6412 250.978 13.56 250.896 13.3975C250.733 13.1539 250.896 11.6109 249.797 11.286C248.82 11.0424 247.884 12.6666 246.622 14.1691C245.605 15.3873 244.18 16.037 242.633 16.5243C240.517 17.174 237.301 17.3364 237.301 17.3364C237.301 17.3364 238.889 18.0267 240.232 18.4328C243.488 19.4073 245.035 19.9352 248.698 20.3007C251.466 20.5849 254.356 20.8692 254.519 19.8134C254.519 19.854 254.519 19.8134 254.519 19.8134Z" fill="#93C2DB"/>
<path d="M85.5586 51.2835C87.3089 47.5883 86.7392 42.9593 84.7853 39.3046C82.8724 35.7312 80.3893 33.173 76.4002 31.3051C75.4237 30.8584 72.7779 30.0869 72.7779 30.0869C72.7779 30.0869 72.8184 32.3202 72.8998 32.9699C73.2662 35.6906 73.6735 38.5331 75.3423 40.4011C76.8889 42.1471 78.8833 42.9997 80.9594 44.1367C86.6983 47.3447 85.5586 51.2835 85.5586 51.2835Z" fill="#93C2DB"/>
<path d="M55.8044 77.0687C55.8044 77.0687 66.4686 76.5408 70.4577 84.3779C74.7314 92.7427 78.9241 95.5853 78.9241 95.5853C78.9241 95.5853 70.254 96.7626 66.143 91.8089C61.9915 86.8549 63.8231 81.86 55.8044 77.0687Z" fill="#93C2DB"/>
<path d="M252.972 57.2119C252.972 57.2119 250.896 51.73 253.542 48.116C255.618 45.2331 260.543 44.5428 264.939 45.0299C267.91 45.355 271.696 43.4463 271.696 43.4463C271.696 43.4463 271.696 47.8321 266.893 49.2126C264.206 49.984 261.845 48.8066 258.141 51.2833C253.298 54.4914 252.972 57.2119 252.972 57.2119Z" fill="#93C2DB"/>
<path d="M143.683 59.9326C141.933 56.2375 142.544 51.6489 144.457 47.9537C147.957 41.2537 156.464 39.9543 156.464 39.9543C156.464 39.9543 155.732 45.4359 153.086 48.5628C151.58 50.3496 148.934 50.9991 147.102 52.4611C142.747 55.9127 143.683 59.9326 143.683 59.9326Z" fill="#93C2DB"/>
<path d="M231.359 67.8916C231.033 67.6481 217.519 62.8156 229.69 52.9078L238.034 46.2078C238.034 46.2078 238.319 53.6389 233.068 58.5114C227.858 63.2623 231.359 67.8916 231.359 67.8916Z" fill="#93C2DB"/>
<path d="M96.7928 67.8916C96.4673 67.6481 82.9537 62.8156 95.124 52.9078L103.468 46.2078C103.468 46.2078 103.753 53.6389 98.5026 58.5114C93.3332 63.2623 96.7928 67.8916 96.7928 67.8916Z" fill="#93C2DB"/>
<path d="M216.705 96.7625C216.705 96.7625 221.427 89.4942 229.487 88.8851C236.243 88.3572 244.669 92.2551 244.669 92.2551C244.669 92.2551 238.075 97.7371 229.731 96.8437C223.707 96.1942 221.956 94.2043 216.705 96.7625Z" fill="#93C2DB"/>
<path d="M51.9784 26.5541C50.9201 26.5541 50.8387 29.4778 50.7168 32.239C50.5946 35.8936 50.9201 37.4774 51.4493 40.8478C51.6529 42.2283 52.1412 43.8931 52.1412 43.8931C52.1412 43.8931 52.7112 40.7258 53.6473 38.6955C54.3392 37.2338 55.1534 35.8936 56.4967 35.0409C58.1247 34.0257 59.8749 33.2948 59.7935 32.3203C59.5899 31.1833 58.0433 31.1427 57.8396 30.9396C57.7178 30.8178 57.6364 30.6554 57.921 30.3711C58.4911 29.8838 59.1425 29.4372 59.7935 29.1123C61.5032 28.219 64.4745 27.3257 64.4337 26.2293C64.3931 24.9299 62.5615 25.0111 62.1543 24.7674C61.7065 24.5238 61.3401 23.8335 62.7243 23.3462C63.9859 22.8996 65.6547 22.6965 66.7539 22.2498C67.8527 21.8438 69.2366 20.6662 68.6669 19.8946C68.0564 19.1231 66.0211 20.0165 66.3061 18.7577C66.4689 18.0674 68.6669 16.4431 69.8066 15.631C71.2718 14.5752 72.3301 12.8697 71.0685 11.7327C69.3588 10.3521 65.3292 13.4382 63.9859 14.7376C62.6429 16.037 62.1138 16.4431 61.8693 15.6716C61.5032 13.5194 60.6482 13.0322 59.6713 14.5752C58.6947 16.1183 58.206 18.5953 57.7991 20.0165C57.3919 21.4377 56.9445 21.6407 56.6186 21.3971C56.2931 21.1535 56.2117 19.4886 55.6416 19.4074C55.1125 19.2855 53.9728 20.2195 53.4845 24.3614C53.3623 25.539 53.4031 27.3257 53.4031 27.5287C53.3623 27.8535 53.1995 28.1784 52.9962 28.016C52.6298 27.7723 52.5485 26.5947 51.9784 26.5541Z" fill="#93C2DB"/>
<path d="M197.778 56.4811C198.307 56.3591 198.307 55.2222 198.633 54.9786C198.836 54.8162 198.999 55.141 199.08 55.4253C199.121 55.6285 199.203 57.4149 199.406 58.5926C200.18 62.694 201.36 63.5059 201.889 63.3435C202.418 63.1811 202.378 61.5567 202.703 61.2728C203.029 60.9884 203.436 61.1916 203.965 62.5313C204.494 63.9122 205.145 66.3484 206.244 67.8105C207.343 69.2722 208.117 68.7035 208.32 66.5108C208.483 65.6986 209.053 66.0641 210.477 67.2418C211.902 68.4195 216.094 71.1805 217.682 69.7188C218.822 68.5007 217.641 66.8763 216.135 65.9425C214.996 65.1707 212.675 63.7498 212.472 63.0592C212.106 61.8411 214.181 62.5721 214.711 61.7599C215.24 60.9477 213.775 59.8919 212.675 59.5672C211.577 59.2424 209.908 59.1205 208.646 58.7957C207.262 58.4302 207.587 57.6992 207.995 57.4149C208.361 57.1309 210.193 57.0901 210.152 55.7908C210.111 54.6943 207.099 54.004 205.349 53.273C204.698 52.9891 204.046 52.5828 203.436 52.1361C203.151 51.8925 203.191 51.6894 203.314 51.5678C203.517 51.3646 205.023 51.1615 205.145 50.0245C205.145 49.05 203.395 48.4409 201.726 47.5475C200.302 46.8169 199.406 45.558 198.633 44.1367C197.574 42.2283 196.801 39.2234 196.801 39.2234C196.801 39.2234 196.435 40.7663 196.313 42.1875C196.069 45.5984 195.865 47.2228 196.272 50.8368C196.435 53.6385 196.72 56.5623 197.778 56.4811Z" fill="#93C2DB"/>
<path d="M184.427 29.3558C184.386 29.437 180.153 35.8528 179.217 45.8421C179.136 45.1111 179.136 44.0961 179.095 43.3243C180.398 34.5534 183.939 29.1121 183.98 29.0715L184.427 29.3558Z" fill="#FF8AE2"/>
<path d="M72.0447 92.4583C69.7248 91.3618 68.7888 89.4534 67.7305 87.2199C66.9568 85.5959 66.0616 83.7279 64.4333 81.9411C60.0373 77.1902 50.0651 76.1345 49.9837 76.1345L50.0651 75.5254C50.472 75.5662 60.3632 76.6219 64.9219 81.5352C66.6313 83.3624 67.5268 85.2711 68.341 86.936C69.3585 89.0475 70.2131 90.8747 72.3298 91.8493L72.0447 92.4583Z" fill="#FF8AE2"/>
<path d="M52.1003 48.5628C51.8562 46.6544 50.9198 36.8682 54.2983 29.6401C58.2871 21.194 65.9394 15.6715 66.0208 15.6309L66.3872 16.1181C66.3058 16.1588 58.7757 21.6 54.868 29.9244C51.5303 36.9898 52.5072 46.6544 52.7109 48.522L52.1003 48.5628Z" fill="#FF8AE2"/>
<path d="M243.895 18.1892C238.644 18.1892 233.923 17.0523 232.661 16.7274L232.823 16.1183C234.655 16.6056 244.098 18.8389 251.588 16.5244C260.38 13.8037 266.77 7.10365 266.851 7.02246L267.299 7.42853C267.218 7.50971 260.705 14.291 251.791 17.0929C249.227 17.905 246.459 18.1892 243.895 18.1892Z" fill="#FF8AE2"/>
<path d="M212.431 66.2672C212.35 66.2268 204.413 61.3131 199.854 53.1918C198.063 50.0245 197.208 46.2077 196.72 42.8373C196.597 42.0251 196.476 40.3603 196.476 40.3603L196.842 38.4519C197.045 42.3906 197.859 48.4004 200.383 52.9078C204.86 60.8664 212.675 65.7393 212.757 65.7801L212.431 66.2672Z" fill="#FF8AE2"/>
<path d="M86.5353 45.5984C86.4948 45.1113 86.4539 44.5834 86.3725 44.0959C82.9534 38.736 76.278 34.1068 75.9525 33.9038L75.6266 34.3911C75.6675 34.4317 83.5231 39.8325 86.5353 45.5984Z" fill="#FF8AE2"/>
<path d="M99.7641 51.5679C99.7233 51.6083 97.2811 53.9637 94.9612 56.1564C92.1118 58.8366 91.0944 61.5572 91.8677 64.7245C92.1527 65.0088 92.4373 65.2928 92.7632 65.5367C91.5827 62.1663 92.3968 59.4049 95.409 56.6031C97.7289 54.4104 100.212 52.0146 100.212 52.0146L99.7641 51.5679Z" fill="#FF8AE2"/>
<path d="M233.922 52.5015C233.882 52.5422 231.44 54.8973 229.119 57.09C226.799 59.2827 225.7 61.4758 225.782 63.9121C225.985 64.1964 226.229 64.4399 226.474 64.6835C226.108 62.0849 227.084 59.8106 229.567 57.4963C231.887 55.3036 234.37 52.9078 234.37 52.9078L233.922 52.5015Z" fill="#FF8AE2"/>
<path d="M142.869 52.7047C142.787 53.2326 142.706 53.7604 142.706 54.2883C145.637 48.2785 152.719 44.2178 152.8 44.177L152.515 43.6492C152.475 43.6492 149.951 45.1112 147.306 47.5071C145.8 48.8472 144.131 50.5932 142.869 52.7047Z" fill="#FF8AE2"/>
<path d="M257.286 48.0753C260.095 46.6949 264.531 47.1823 264.572 47.1823L264.653 46.5729C264.45 46.5325 259.972 46.045 257.001 47.5071C255.047 48.4409 253.46 49.9433 252.198 51.9736C252.157 52.3799 252.157 52.8263 252.198 53.2325C253.46 50.8775 255.17 49.1311 257.286 48.0753Z" fill="#FF8AE2"/>
<path d="M213.693 99.8486L213.205 99.4831C213.286 99.4019 214.833 97.3716 217.478 95.7475C218.944 94.8541 220.572 94.1231 222.648 93.3921C228.305 91.4837 236.649 92.1335 237.016 92.1739L236.975 92.783C236.894 92.783 228.387 92.0928 222.851 94.0011C220.775 94.6918 219.229 95.4224 217.804 96.2754C215.28 97.8183 213.734 99.8486 213.693 99.8486Z" fill="#FF8AE2"/>
</svg>
