<svg width="123" height="113" viewBox="0 0 123 113" fill="none" xmlns="http://www.w3.org/2000/svg">
<path d="M22.7113 59.5748C21.592 57.879 19.2989 57.4072 17.6064 58.5356C16.7943 59.0757 16.2278 59.9099 16.0299 60.8806C15.832 61.8448 16.0231 62.8293 16.5691 63.6567C16.9103 64.1764 17.6474 64.7645 18.3025 64.8602V67.4377C18.3025 68.1762 17.661 69.9062 15.8661 69.9062H9.16432V63.3148C9.65569 63.1097 10.1129 62.8089 10.4951 62.3781C11.8464 60.8602 11.7099 58.5217 10.1948 57.1681C8.67976 55.821 6.34571 55.951 4.99444 57.4689C4.33927 58.2073 4.01169 59.1508 4.0663 60.1354C4.12088 61.1199 4.55767 62.0226 5.29473 62.6789C5.36981 62.7404 5.44486 62.8021 5.51994 62.8636C5.82023 63.0961 6.15463 63.2533 6.49587 63.3763V72.1011C5.97037 72.3062 5.47899 72.6138 5.08315 73.065C3.73187 74.5829 3.86837 76.9214 5.38344 78.2753C5.45852 78.3367 5.52676 78.3982 5.60865 78.4597C7.12375 79.6153 9.30079 79.4238 10.5907 77.9745C11.8464 76.5591 11.8464 74.3368 10.5702 73.065C10.3791 72.8803 10.2221 72.7299 10.0788 72.6002H15.873C19.4286 72.6002 21.0051 69.5847 21.0051 67.5403V65.0174C21.2371 64.9285 21.4692 64.8191 21.6807 64.6755C21.7626 64.6209 21.8445 64.5662 21.9196 64.5044C22.6089 63.9643 23.0798 63.2055 23.2572 62.3302C23.4483 61.3867 23.2572 60.4022 22.7113 59.5748ZM6.05908 60.026C6.03179 59.5748 6.18192 59.144 6.48221 58.8089C7.06914 58.1458 8.06555 58.0637 8.75484 58.5903C8.78895 58.6175 8.82308 58.6449 8.85721 58.6721C9.54648 59.2876 9.6079 60.3543 8.99369 61.0517C8.37947 61.7422 7.30801 61.8037 6.61872 61.1885C6.28429 60.8877 6.08639 60.4773 6.05908 60.026ZM9.08924 76.6548C8.47502 77.3454 7.4172 77.4137 6.71424 76.7914C6.01813 76.1761 5.96355 75.1026 6.57777 74.4121C7.16469 73.7487 8.16107 73.6669 8.85037 74.1931C8.8845 74.2206 8.91863 74.2478 8.95274 74.2753C9.64204 74.8908 9.70346 75.9572 9.08924 76.6548ZM21.2917 61.9541C21.203 62.3917 20.9437 62.7679 20.5683 63.0208C20.193 63.2669 19.7425 63.3559 19.3058 63.2669C18.869 63.178 18.4868 62.9183 18.2411 62.5489C17.9954 62.173 17.9067 61.7218 17.9954 61.2842C18.0773 60.8877 18.2889 60.5387 18.6096 60.2926C18.6438 60.2654 18.6847 60.2379 18.7188 60.2175C19.49 59.7046 20.541 59.9167 21.0529 60.6962C21.2917 61.0585 21.3805 61.5097 21.2917 61.9541Z" fill="#183D5D"/>
<path d="M83.9967 22.1123C83.9967 22.1123 94.2201 14.1946 89.4701 0C89.4701 0 83.6214 2.03756 84.6041 8.18444C85.7166 15.0834 85.778 19.3227 83.9967 22.1123Z" fill="#1B6085"/>
<path d="M12.522 33.0729C12.522 33.0729 8.64564 40.5118 0.148926 37.0248C0.148926 37.0248 3.56124 28.7993 12.522 33.0729Z" fill="#1B6085"/>
<path d="M16.2415 35.7737C16.2415 35.7737 22.295 42.5906 16.2347 48.7852C16.2347 48.7784 9.81949 41.9343 16.2415 35.7737Z" fill="#1B6085"/>
<path d="M101.497 31.8455V25.5345H95.1981V31.8455H101.497Z" fill="#1B6085"/>
<path d="M95.1981 38.1569V31.8459H88.899V38.1569H95.1981Z" fill="#0053CA"/>
<path d="M18.5551 30.8985H23.9534L31.0715 23.7671L28.3689 21.0663L18.5551 30.8985Z" fill="#8EBDFF"/>
<path d="M80.6321 99.649L83.3279 96.9482L79.4857 93.0986V92.6132C78.0935 92.9482 76.3462 93.1944 74.5309 93.5431L80.6321 99.649Z" fill="#8EBDFF"/>
<path d="M44.7276 56.874L50.1261 51.4655V17.709L40.3122 7.86987L40.2712 7.91089L40.2302 7.86987H34.9138L44.7276 17.709V56.874Z" fill="#8EBDFF"/>
<path d="M44.7276 106.199L38.1895 112.756H43.5879L50.126 106.199V71.0001L61.0043 60.1013V54.6927L44.7276 71.0001V106.199Z" fill="#8EBDFF"/>
<path d="M92.5754 93.0918H87.177L90.446 96.367L83.9079 102.924L80.6321 106.199L74.0941 112.756H79.4925L86.0305 106.199L89.3064 102.924L95.8444 96.367L92.5754 93.0918Z" fill="#8EBDFF"/>
<path d="M34.8727 7.91078L34.9135 7.86987H34.8317L34.8727 7.91078Z" fill="#8EBDFF"/>
<path d="M22.1722 90.5143H13.4025V99.3003H22.1722V90.5143Z" fill="#8EBDFF"/>
<path d="M62.5127 76.4905C65.8773 67.4924 67.3515 66.6653 68.5525 67.2258C69.7538 67.7864 69.1803 71.253 69.822 72.0393C70.1904 72.4976 70.5999 72.3401 71.2209 71.5745C72.0605 69.5436 73.0022 67.4241 74.0873 65.0788V17.709L64.2804 7.86987L54.4665 17.709L61.0114 24.2661V40.5735L44.7276 56.874V17.709L34.9137 7.86987L34.8727 7.91089L34.832 7.86987L15.2042 27.5411L18.5551 30.8984L28.3689 21.0662L31.6379 24.3413V106.199L38.1828 112.756L44.7276 106.199V71.0001L61.0046 54.6928V80.6409C61.4687 79.3213 61.9667 77.9538 62.5127 76.4905ZM87.177 93.0918L80.6321 99.649L74.5377 93.5362C74.1215 93.6184 73.7052 93.7005 73.2889 93.7894C69.583 94.6097 65.816 96.5174 63.1679 99.2388C62.772 99.649 62.3694 100.114 61.9735 100.606L74.0943 112.75L80.6392 106.193L83.9079 102.917L90.4528 96.3602L87.177 93.0918Z" fill="#0053CA"/>
<path d="M74.094 65.0788C74.1554 64.942 74.217 64.8122 74.2784 64.6754C76.8444 59.1714 78.4003 56.8601 79.4925 56.067V17.709L69.6786 7.87671H64.2802L74.094 17.709V65.0788Z" fill="#8EBDFF"/>
<path d="M122.153 48.505C118.734 44.4297 107.944 47.9102 103.959 49.7357C99.9802 51.5681 97.2776 52.2518 97.1684 50.481C96.9227 46.4402 96.7521 42.5016 93.4079 45.1273C90.0639 47.7527 87.3067 55.1647 85.3207 57.9201C83.3347 60.6755 82.4954 61.6397 81.9219 60.7987C81.3487 59.9646 82.1882 56.5526 81.0348 55.8963C79.8815 55.2398 78.346 55.951 74.2784 64.6687C73.1113 67.1712 72.115 69.4139 71.2277 71.5677C70.6067 72.3334 70.1972 72.4908 69.8287 72.0326C69.1941 71.2463 69.7606 67.7796 68.5593 67.2191C67.3583 66.6583 65.8841 67.4856 62.5195 76.4838C59.5576 84.4016 57.9539 89.7348 56.6434 97.5159C56.0974 100.729 55.8723 106.131 55.8723 106.131C55.8723 106.131 59.585 98.2336 63.1679 94.5415C65.8159 91.8133 69.583 89.9125 73.2889 89.0922C77.7247 88.1076 82.1608 88.0048 82.4544 85.9946C82.8435 83.376 78.6393 81.27 78.3254 80.6888C78.1684 80.3948 78.3322 79.93 78.9192 79.4924C80.5843 78.8154 82.3246 78.3436 84.0445 78.0974C88.5487 77.4683 92.9848 77.7077 93.4353 75.7249C94.0289 73.1471 89.9955 70.7129 89.7294 70.1045C89.4633 69.4958 90.4938 68.313 93.5923 68.1147C96.6905 67.9164 104.635 70.5353 107.44 70.3232C110.244 70.1113 112.06 68.2994 111.275 66.1798C110.49 64.0532 104.737 62.8021 106.259 60.3201C107.105 58.9458 113.309 57.0792 116.434 56.0671C119.034 55.2262 124.952 51.8417 122.153 48.505Z" fill="#1B6085"/>
<path d="M53.6202 109.645C53.6544 109.399 63.9323 81.1675 82.0859 67.5063C94.8549 57.8995 104.525 54.2756 106.805 53.51C107.078 53.4142 107.378 53.5783 107.446 53.8587C107.515 54.1116 107.371 54.3713 107.126 54.4535C105.003 55.1647 95.4282 58.7132 82.6866 68.3062C64.8604 81.7213 54.6439 109.55 54.6097 109.789L53.6202 109.645Z" fill="white"/>
<path d="M67.2013 67.3763C67.7064 67.014 68.1294 67.0344 68.5183 67.2055V22.0098H67.2013V39.7051L38.7559 68.2104V22.0098H37.439V100.312H38.7559V70.2821L67.2013 41.7836V67.3763Z" fill="#8EBDFF"/>
</svg>
