<svg width="281" height="158" viewBox="0 0 281 158" fill="none" xmlns="http://www.w3.org/2000/svg">
<path d="M177.182 58.471V27.5692L173.966 30.7772V58.471L179.502 64.0337L173.966 69.5969H177.182L182.758 64.0337L177.182 58.471Z" fill="#8EBDFF"/>
<path d="M260.176 25.1327H256.961L262.497 30.6958V39.9543V45.517V65.8612L258.793 69.5967H262.008L265.753 65.8612V45.517V39.9543V30.6958L260.176 25.1327Z" fill="#8EBDFF"/>
<path d="M121.418 10.3114H118.447L124.023 15.8745V25.1328V30.6959V41.7815V65.8613L120.278 69.5968H123.29L126.994 65.8613V15.8745L121.418 10.3114Z" fill="#8EBDFF"/>
<path d="M70.1321 58.4705V27.4879L66.9163 30.6958V58.4705L72.4929 64.0336L66.9163 69.5968H70.1321L75.7083 64.0336L70.1321 58.4705Z" fill="#8EBDFF"/>
<path d="M157.807 19.5696H154.591V25.1327H157.807V19.5696Z" fill="#8EBDFF"/>
<path d="M154.591 62.166L157.807 58.9579V32.5231L165.256 25.1327H162.04L154.591 32.5231V62.166Z" fill="#8EBDFF"/>
<path d="M158.336 58.4708L160.168 60.3388L154.592 65.8612L150.887 69.5971H154.103L157.807 65.8612L163.383 60.3388L161.552 58.4708H158.336Z" fill="#8EBDFF"/>
<path d="M207.466 58.4706V30.6959V25.1328V15.8745L201.889 10.3114H198.674L204.25 15.8745V25.1328V30.6959V58.4706L209.786 64.0337L204.25 69.5968H207.466L213.042 64.0337L207.466 58.4706Z" fill="#8EBDFF"/>
<path d="M213.042 25.1327H209.786L217.235 32.5231V56.6029L211.414 62.4096L213.042 64.0336L220.45 56.6029V32.5231L213.042 25.1327Z" fill="#8EBDFF"/>
<path d="M26.5792 22.8589V36.3809L29.7947 33.173V22.8589V13.154L23.9334 7.30664H23.8928H20.7179L26.5792 13.154V22.8589Z" fill="#8EBDFF"/>
<path d="M44.082 15.1031V22.8589V52.0549V57.9024L47.9893 61.8007L49.6177 60.1763L47.2974 57.9024V52.0549V22.8589V15.1031V13.154L41.4362 7.30664H38.2204L44.082 13.154V15.1031Z" fill="#8EBDFF"/>
<path d="M36.2665 35.1218L26.5791 44.7864V65.6984L22.6716 69.5967H25.8872L29.7947 65.6984V44.7864L36.2665 38.3298V35.1218Z" fill="#8EBDFF"/>
<path d="M16.8104 15.1436L10.9491 20.9503H14.2054L18.4385 16.7272L16.8104 15.1436Z" fill="#8EBDFF"/>
<path d="M55.1125 57.9022H51.8971L53.8509 59.8514L49.9432 63.7497L47.9893 65.6985L44.082 69.5968H47.2974L51.2051 65.6985L53.159 63.7497L57.0664 59.8514L55.1125 57.9022Z" fill="#8EBDFF"/>
<path d="M182.758 25.1327H179.502L186.951 32.5231V56.6029L181.13 62.4096L182.758 64.0336L190.167 56.6029V32.5231L182.758 25.1327Z" fill="#8EBDFF"/>
<path d="M246.012 32.4825L233.068 45.3954V58.4708L236.772 62.166L238.4 60.5824L236.284 58.4708V45.3954L249.227 32.4825L241.86 25.1327H238.645L246.012 32.4825Z" fill="#8EBDFF"/>
<path d="M242.348 56.6029L244.221 58.4705L238.645 64.0336L236.772 65.8612L233.068 69.5968H236.284L239.988 65.8612L241.86 64.0336L247.437 58.4705L245.564 56.6029H242.348Z" fill="#8EBDFF"/>
<path d="M233.068 41.7003L236.284 38.4923V33.9037L233.068 30.6958V41.7003Z" fill="#8EBDFF"/>
<path d="M83.1161 60.3384V32.5231L75.7083 25.1327H72.4929L79.9007 32.5231V60.3384L83.6048 64.0336L78.0691 69.5967H81.2845L86.8202 64.0336L83.1161 60.3384Z" fill="#8EBDFF"/>
<path d="M102.288 62.1657L103.875 60.582L101.799 58.4705V33.8225L98.6244 30.6958H98.5839V58.4705L102.288 62.1657Z" fill="#8EBDFF"/>
<path d="M111.08 56.6029H107.864L109.696 58.4705L104.16 64.0336L102.288 65.8612L98.5839 69.5968H101.799L105.503 65.8612L107.376 64.0336L112.911 58.4705L111.08 56.6029Z" fill="#8EBDFF"/>
<path d="M104.16 36.1777H107.376L112.911 30.6146L107.376 25.0515H104.16L109.696 30.6146L104.16 36.1777Z" fill="#8EBDFF"/>
<path d="M132.815 25.1327H129.559L135.135 30.6958L129.559 36.2589H132.815L138.351 30.6958L132.815 25.1327Z" fill="#8EBDFF"/>
<path d="M271.289 25.1327H268.073L273.649 30.6958L268.073 36.2589H271.289L276.865 30.6958L271.289 25.1327Z" fill="#8EBDFF"/>
<path d="M132.815 36.259H129.559L135.135 41.7815V65.8612L131.431 69.5971H134.647L138.351 65.8612V41.7815L132.815 36.259Z" fill="#8EBDFF"/>
<path d="M162.04 25.1329H154.592V19.5698L141.607 32.5233H147.184V65.8611L150.887 69.5971L154.592 65.8611L160.168 60.3388L158.337 58.4708L154.592 62.166V32.5233L162.04 25.1329Z" fill="#0053CA"/>
<path d="M204.25 30.6959V25.1328V15.8745L198.674 10.3114L193.097 15.8745L196.801 19.5697V62.1661L204.25 69.5968L209.786 64.0337L204.25 58.4706V30.6959Z" fill="#0053CA"/>
<path d="M204.25 30.6958L209.785 36.2589V64.0336L217.234 56.6029V32.5231L209.785 25.1327L204.25 30.6958Z" fill="#0053CA"/>
<path d="M47.9893 61.8007L44.082 57.9024V52.0549V22.8589V15.1031V13.154L38.2207 7.30664L32.4 13.154L36.2668 17.0116V26.7166L26.5794 36.3809V22.8589V13.154L20.7181 7.30664H20.6774L8.9548 18.9607L10.9493 20.9504L16.8106 15.1437L18.7643 17.0928V65.699L22.6719 69.5969L26.5794 65.699V44.7866L36.2668 35.1221V52.0549V61.8007L44.082 69.5969L47.9893 65.699L49.9432 63.7498L53.8505 59.8515L51.897 57.9024L47.9893 61.8007Z" fill="#0053CA"/>
<path d="M173.966 30.6958L166.518 38.0863V62.1657L173.966 69.5968L179.502 64.0337L173.966 58.4705V30.6958Z" fill="#0053CA"/>
<path d="M173.967 30.6958L179.502 36.2589V64.0336L186.951 56.6029V32.5231L179.502 25.1327L173.967 30.6958Z" fill="#0053CA"/>
<path d="M246.012 32.4825L238.645 25.1327L233.068 30.6958L238.604 36.1777L233.068 41.7003V30.6958L225.619 38.0863V62.166L233.068 69.5967L236.772 65.8612L238.645 64.0336L244.221 58.4708L242.348 56.6029L236.772 62.166L233.068 58.4708V45.3954L246.012 32.4825Z" fill="#0053CA"/>
<path d="M66.9163 30.6958L59.4676 38.0863V62.1657L66.9163 69.5968L72.4929 64.0337L66.9163 58.4705V30.6958Z" fill="#0053CA"/>
<path d="M79.9007 32.5231L72.4929 25.1327L66.9163 30.6958L72.4929 36.2589V64.0336L78.0691 69.5967L83.6048 64.0336L79.9007 60.3384V32.5231Z" fill="#0053CA"/>
<path d="M102.288 62.1661L98.5839 58.4709V30.696L91.1349 38.0864V62.1661L98.5839 69.5972L102.288 65.8613L104.16 64.0341L109.696 58.4709L107.864 56.603L102.288 62.1661Z" fill="#0053CA"/>
<path d="M104.171 25.064L98.5876 30.6343L104.171 36.2046L109.755 30.6343L104.171 25.064Z" fill="#0053CA"/>
<path d="M129.602 25.1057L124.018 30.676L129.602 36.2463L135.185 30.676L129.602 25.1057Z" fill="#0053CA"/>
<path d="M127.727 45.5174V65.8612L131.431 69.5971L135.135 65.8612V41.7815L129.559 36.259L124.024 41.7815L127.727 45.5174Z" fill="#0053CA"/>
<path d="M124.024 25.1328V15.8745L118.447 10.3114L112.871 15.8745L116.575 19.5697V65.8613L120.279 69.5968L124.024 65.8613V41.7815V30.6959V25.1328Z" fill="#0053CA"/>
<path d="M268.114 25.1033L262.53 30.6736L268.114 36.2439L273.697 30.6736L268.114 25.1033Z" fill="#0053CA"/>
<path d="M251.384 30.6958L255.088 34.391V39.9543V45.517V65.8612L258.792 69.5967L262.496 65.8612V45.517V39.9543V30.6958L256.961 25.1327L251.384 30.6958Z" fill="#0053CA"/>
<path d="M170.914 10.8395V8.64672H171.769C172.542 8.64672 173.153 9.25582 173.153 10.0274V15.9965C172.298 16.2807 171.687 17.0929 171.687 18.0674C171.687 18.6765 171.931 19.2044 172.298 19.6105C172.705 20.0166 173.234 20.2602 173.885 20.2602C175.106 20.2602 176.083 19.2856 176.083 18.0674C176.083 17.1741 175.513 16.4026 174.74 16.0371V10.0274C174.74 9.21523 174.414 8.48432 173.844 7.91581C173.275 7.34733 172.542 7.02245 171.728 7.02245H170.873V4.82971L167.902 7.79399L170.914 10.8395ZM173.926 17.0929C174.211 17.0929 174.455 17.2147 174.659 17.3771C174.821 17.5396 174.944 17.8238 174.944 18.0674C174.944 18.3517 174.821 18.5953 174.659 18.7577C174.455 18.9608 174.211 19.042 173.967 19.042C173.397 19.042 172.949 18.5953 172.949 18.0268C172.908 17.5396 173.356 17.0929 173.926 17.0929Z" fill="#0053CA"/>
<path d="M167.454 18.108C167.454 17.2146 166.884 16.4431 166.111 16.0776V9.90545C166.884 9.58061 167.454 8.80906 167.454 7.87511C167.454 6.65691 166.477 5.68237 165.256 5.68237C164.035 5.68237 163.058 6.65691 163.058 7.87511C163.058 8.44362 163.261 9.0121 163.669 9.41816C163.913 9.66183 164.198 9.82423 164.482 9.94604V16.0371C163.628 16.3213 163.017 17.1334 163.017 18.108C163.017 18.7171 163.261 19.245 163.628 19.651C164.035 20.0571 164.564 20.3007 165.215 20.3007C166.477 20.3007 167.454 19.2856 167.454 18.108ZM165.256 8.89028C164.971 8.89028 164.727 8.76847 164.564 8.60603C164.361 8.403 164.279 8.15937 164.279 7.91574C164.279 7.34723 164.727 6.90057 165.297 6.90057C165.582 6.90057 165.826 7.02239 166.029 7.18483C166.192 7.34723 166.314 7.63149 166.314 7.87511C166.273 8.44362 165.826 8.89028 165.256 8.89028ZM165.256 19.0825C164.686 19.0825 164.238 18.6359 164.238 18.0674C164.238 17.7831 164.361 17.5395 164.523 17.3771C164.727 17.174 164.971 17.0928 165.215 17.0928C165.5 17.0928 165.744 17.2146 165.948 17.3771C166.111 17.5395 166.233 17.8237 166.233 18.0674C166.273 18.6359 165.826 19.0825 165.256 19.0825Z" fill="#0053CA"/>
<path d="M224.805 28.2189C225.7 27.4068 225.782 26.0261 224.968 25.1328C224.724 24.8892 224.479 24.6861 224.195 24.5643V20.3818C225.741 22.3716 227.573 23.2243 228.957 23.6304C229.038 23.9958 229.201 24.3207 229.445 24.6049C229.852 25.0516 230.381 25.2952 230.951 25.3358C231.521 25.3764 232.091 25.1734 232.538 24.7673C233.434 23.9552 233.515 22.5746 232.702 21.6812C232.294 21.2346 231.765 20.9909 231.196 20.9503C230.666 20.9097 230.178 21.0721 229.73 21.397C229.689 21.4376 229.649 21.4782 229.608 21.5188C229.445 21.6812 229.283 21.8437 229.201 22.0467C227.98 21.6407 226.352 20.7473 225.049 18.7576C225.782 17.9455 225.823 16.6866 225.049 15.8339C224.276 14.9812 222.974 14.8594 222.078 15.5496C222.037 15.5903 221.997 15.6309 221.956 15.6715C221.06 16.4836 220.979 17.8642 221.793 18.7576C222.037 19.0418 222.322 19.2043 222.648 19.3261V24.5237C222.444 24.6049 222.241 24.6861 222.078 24.8486C222.037 24.8892 221.997 24.9297 221.956 24.9704C221.508 25.3764 221.264 25.9043 221.223 26.4728C221.182 27.0413 221.386 27.6098 221.793 28.0565C222.526 28.9092 223.91 28.9904 224.805 28.2189ZM230.422 22.3716C230.625 22.2091 230.87 22.0873 231.155 22.1279C231.44 22.1279 231.684 22.2497 231.847 22.4528C232.213 22.8588 232.172 23.5085 231.765 23.874C231.765 23.874 231.725 23.9146 231.684 23.9146C231.481 24.077 231.277 24.1176 231.033 24.1176C230.748 24.1176 230.504 23.9958 230.341 23.7928C230.178 23.5898 230.056 23.3461 230.096 23.0619C230.096 22.8182 230.219 22.5746 230.422 22.3716ZM222.729 16.5648C223.136 16.1994 223.787 16.24 224.154 16.646C224.52 17.0521 224.479 17.7018 224.072 18.0673L224.031 18.1079C223.625 18.4327 223.014 18.3515 222.689 17.9861C222.281 17.5394 222.322 16.9303 222.729 16.5648ZM222.363 26.5134C222.363 26.2292 222.485 25.9855 222.689 25.8231C223.095 25.4577 223.747 25.4983 224.113 25.9043C224.479 26.3104 224.439 26.9601 224.031 27.3256L223.991 27.3662C223.584 27.691 222.974 27.6098 222.648 27.2443C222.444 27.0413 222.322 26.757 222.363 26.5134Z" fill="#0053CA"/>
<path d="M65.8175 5.72295C65.8175 5.56054 65.8584 5.35751 65.9397 5.19507H63.0089V6.45386H65.9397C65.8175 6.25083 65.777 5.96661 65.8175 5.72295Z" fill="#0053CA"/>
<path d="M69.8876 5.96642C69.8876 6.12883 69.8471 6.33186 69.7657 6.4943H72.6962V5.23547H69.8063C69.8471 5.43851 69.8876 5.68217 69.8876 5.96642Z" fill="#0053CA"/>
<path d="M70.4985 5.84468C70.4985 5.88527 70.4985 5.96649 70.4985 6.00709C70.458 6.738 70.1321 7.38773 69.603 7.83439C69.0738 8.32168 68.3819 8.52471 67.69 8.48408C66.2248 8.4029 65.0851 7.14407 65.1665 5.68224C65.207 4.95133 65.5328 4.30163 66.062 3.85494C66.5912 3.36767 67.2831 3.16464 67.975 3.20525C69.4402 3.24585 70.4985 4.42345 70.4985 5.84468ZM66.428 5.84468C66.428 6.5756 66.9981 7.1847 67.7714 7.26592C68.1378 7.30651 68.5041 7.14407 68.7892 6.90044C69.0738 6.65682 69.2366 6.29134 69.2774 5.92587C69.3183 5.15436 68.7483 4.50467 67.975 4.42345L68.0155 3.81435L67.975 4.42345C67.6086 4.38285 67.2422 4.54526 66.9572 4.78888C66.6725 5.03255 66.5098 5.39799 66.4689 5.76346C66.428 5.76346 66.428 5.80405 66.428 5.84468Z" fill="#0053CA"/>
<path d="M247.64 72.4802C247.64 72.3174 247.68 72.1146 247.762 71.9523H244.831V73.2108H247.762C247.68 73.008 247.64 72.7237 247.64 72.4802Z" fill="#0053CA"/>
<path d="M251.71 72.7238C251.71 72.8862 251.669 73.0893 251.588 73.2517H254.519V71.9928H251.629C251.71 72.1959 251.75 72.4395 251.71 72.7238Z" fill="#0053CA"/>
<path d="M252.361 72.602C252.361 72.6425 252.361 72.7236 252.361 72.7644C252.321 73.4951 251.995 74.1449 251.466 74.5916C250.937 75.0383 250.245 75.2819 249.553 75.2414C248.088 75.1603 246.948 73.9014 247.029 72.4393C247.07 71.7087 247.395 71.0588 247.925 70.6121C248.454 70.125 249.146 69.9219 249.838 69.9623C251.262 70.0438 252.361 71.1808 252.361 72.602ZM248.291 72.602C248.291 73.3327 248.861 73.9418 249.634 74.023C250.001 74.0637 250.367 73.9014 250.652 73.6578C250.937 73.4139 251.099 73.0484 251.14 72.6832C251.181 71.9114 250.611 71.262 249.838 71.1808L249.878 70.5717L249.838 71.1808C249.471 71.14 249.105 71.3024 248.82 71.5463C248.535 71.7898 248.372 72.1553 248.332 72.5205C248.291 72.5613 248.291 72.5613 248.291 72.602Z" fill="#0053CA"/>
<path d="M34.2724 76.7033C34.2724 76.5409 34.3131 76.3378 34.3946 76.1754H31.4639V77.4343H34.3946C34.2724 77.2312 34.2317 76.9469 34.2724 76.7033Z" fill="#0053CA"/>
<path d="M38.3426 76.9467C38.3426 77.1091 38.3017 77.3122 38.2204 77.4746H41.1512V76.2161H38.2612C38.3017 76.4188 38.3426 76.6624 38.3426 76.9467Z" fill="#0053CA"/>
<path d="M38.9535 76.8251C38.9535 76.8655 38.9535 76.9467 38.9535 76.9874C38.9126 77.7185 38.5871 78.3679 38.058 78.8146C37.5288 79.3021 36.8369 79.5049 36.1448 79.4645C34.6795 79.3833 33.5398 78.1244 33.6212 76.6627C33.6619 75.9317 33.9876 75.2819 34.5167 74.8352C35.0459 74.3885 35.7378 74.1449 36.4298 74.1857C37.8543 74.2261 38.9535 75.4038 38.9535 76.8251ZM34.883 76.8251C34.883 77.5561 35.4529 78.1652 36.2263 78.2463C36.5928 78.2868 36.9588 78.1244 37.2438 77.8808C37.5288 77.6373 37.6916 77.2718 37.7324 76.9063C37.773 76.1348 37.2033 75.485 36.4298 75.4038L36.4705 74.754L36.4298 75.4038C36.0635 75.363 35.6971 75.5258 35.4122 75.7693C35.1272 76.0129 34.9644 76.3784 34.9238 76.7439C34.883 76.7843 34.883 76.7843 34.883 76.8251Z" fill="#0053CA"/>
<path d="M138.391 18.1891C138.391 18.0267 138.432 17.8237 138.514 17.6613H135.583V18.9201H138.514C138.432 18.6764 138.391 18.4328 138.391 18.1891Z" fill="#0053CA"/>
<path d="M142.462 18.4328C142.462 18.5952 142.421 18.7982 142.34 18.9607H145.27V17.6613H142.381C142.462 17.9049 142.502 18.1485 142.462 18.4328Z" fill="#0053CA"/>
<path d="M143.113 18.3111C143.113 18.3517 143.113 18.4329 143.113 18.4735C143.072 19.2044 142.747 19.8542 142.218 20.3008C141.689 20.7881 140.997 20.9911 140.305 20.9505C138.839 20.8693 137.699 19.6105 137.781 18.1487C137.822 17.4178 138.147 16.768 138.676 16.3214C139.206 15.8341 139.897 15.6311 140.589 15.6717C142.014 15.7123 143.113 16.8899 143.113 18.3111ZM139.043 18.3111C139.043 19.042 139.612 19.6511 140.386 19.7323C140.752 19.7729 141.119 19.6105 141.404 19.3669C141.689 19.1232 141.851 18.7578 141.892 18.3923C141.933 17.6208 141.363 16.9711 140.589 16.8899L140.63 16.2808L140.589 16.8899C140.223 16.8493 139.857 17.0117 139.572 17.2553C139.287 17.499 139.124 17.8644 139.083 18.2299C139.043 18.2299 139.043 18.2705 139.043 18.3111Z" fill="#0053CA"/>
<path d="M97.8102 18.5141C97.1588 17.499 95.775 17.2147 94.7576 17.905C94.2689 18.2299 93.9434 18.7172 93.8211 19.2856C93.6993 19.8541 93.8211 20.4632 94.147 20.9505C94.3503 21.2754 94.7981 21.6002 95.1645 21.6814V23.2245C95.1645 23.6711 94.7981 24.6863 93.6993 24.6863H89.7101V20.7881C89.9952 20.6663 90.2802 20.5038 90.4834 20.2196C91.2976 19.3263 91.2162 17.9456 90.3207 17.1335C89.4251 16.3214 88.0413 16.4026 87.2271 17.2959C86.8202 17.7426 86.6575 18.3111 86.6575 18.8796C86.6575 19.4481 86.9425 20.0165 87.3903 20.382C87.4308 20.4226 87.4716 20.4632 87.5121 20.5038C87.6749 20.6256 87.8785 20.7475 88.0822 20.8287V26.0263C87.7563 26.1481 87.4716 26.3512 87.2271 26.5948C86.4133 27.4882 86.4947 28.8688 87.3903 29.6809C87.4308 29.7215 87.4716 29.7621 87.5121 29.8027C88.4077 30.493 89.7102 30.3712 90.4834 29.5185C91.2162 28.6657 91.2162 27.3663 90.4834 26.5948C90.3616 26.473 90.2802 26.3918 90.1988 26.3106H93.6584C95.775 26.3106 96.7111 24.5239 96.7111 23.3057V21.8033C96.8333 21.7626 96.9961 21.6814 97.1183 21.6002C97.1588 21.5596 97.1997 21.519 97.2402 21.4784C97.6475 21.1535 97.9321 20.7069 98.0544 20.179C98.258 19.5699 98.1358 19.0014 97.8102 18.5141ZM87.8785 18.7984C87.8785 18.5141 87.9599 18.2705 88.1227 18.0674C88.4891 17.6614 89.0591 17.6208 89.466 17.9456C89.5069 17.9456 89.5065 17.9862 89.5065 17.9862C89.9138 18.3517 89.9543 19.0014 89.5883 19.4075C89.2219 19.8135 88.5705 19.8541 88.1636 19.4887C88.0008 19.2856 87.8785 19.042 87.8785 18.7984ZM89.6696 28.6657C89.3032 29.0718 88.6927 29.1124 88.2449 28.7469C87.838 28.3815 87.7972 27.7318 88.1636 27.3257C88.53 26.9196 89.0996 26.8791 89.5065 27.2039C89.5474 27.2039 89.5474 27.2445 89.5474 27.2445C89.9952 27.61 90.0357 28.2597 89.6696 28.6657ZM96.9556 19.9354C96.9147 20.179 96.7519 20.4226 96.5078 20.5851C96.3042 20.7475 96.0192 20.7881 95.7345 20.7475C95.49 20.7069 95.2459 20.5445 95.0831 20.3008C94.9203 20.0978 94.8795 19.8135 94.9203 19.5293C94.9608 19.2856 95.0831 19.0826 95.2867 18.9608C95.3272 18.9608 95.3272 18.9202 95.3681 18.9202C95.8159 18.6359 96.4669 18.7578 96.7519 19.2044C96.9556 19.4075 96.9961 19.6511 96.9556 19.9354Z" fill="#0053CA"/>
<path d="M22.9973 15.7124H22.224V62.2067H22.9973V15.7124Z" fill="#8EBDFF"/>
<path d="M40.7439 15.7124H39.9706V58.9991H40.7439V15.7124Z" fill="#8EBDFF"/>
<path d="M120.279 17.8644H119.505V63.9934H120.279V17.8644Z" fill="#8EBDFF"/>
<path d="M200.627 18.392H199.854V59.2423H200.627V18.392Z" fill="#8EBDFF"/>
<path d="M76.5225 34.5536H75.7488V61.1103H76.5225V34.5536Z" fill="#8EBDFF"/>
<path d="M151.173 34.5536H150.399V61.1103H151.173V34.5536Z" fill="#8EBDFF"/>
<path d="M258.914 33.2543H258.141V62.3693H258.914V33.2543Z" fill="#8EBDFF"/>
<path d="M183.409 34.0662H182.636V55.8311H183.409V34.0662Z" fill="#8EBDFF"/>
<path d="M213.408 34.5536H212.635V56.3186H213.408V34.5536Z" fill="#8EBDFF"/>
<path d="M229.242 39.264H228.469V61.0291H229.242V39.264Z" fill="#8EBDFF"/>
<path d="M170.751 39.0203H169.977V60.7853H170.751V39.0203Z" fill="#8EBDFF"/>
<path d="M95.2053 38.4519H94.432V60.6636H95.2053V38.4519Z" fill="#8EBDFF"/>
<path d="M63.4567 38.939H62.6834V60.4605H63.4567V38.939Z" fill="#8EBDFF"/>
<path d="M131.553 43.2838H130.78V64.8053H131.553V43.2838Z" fill="#8EBDFF"/>
<path d="M22.9974 44.3805L22.3868 43.7714L40.052 26.1074L40.6625 26.7571L22.9974 44.3805Z" fill="#8EBDFF"/>
<path d="M252.972 57.2119C253.379 58.43 254.274 59.3234 255.089 59.7701V53.7198C253.135 55.7502 252.972 57.1711 252.972 57.2119Z" fill="#8EBDFF"/>
<path d="M143.683 59.9325C143.602 59.8109 143.561 59.6482 143.52 59.5266C143.561 59.689 143.602 59.8109 143.683 59.9325Z" fill="#8EBDFF"/>
<path d="M147.143 52.4612C142.747 55.9128 143.683 59.9327 143.683 59.9327C144.375 61.3947 145.84 62.2474 147.183 62.7348L147.143 52.4612Z" fill="#8EBDFF"/>
<path d="M83.1161 45.6798V54.4506C84.0522 53.598 85.07 52.4611 85.5583 51.2022C85.6805 50.6743 86.0061 48.1568 83.1161 45.6798Z" fill="#0053CA"/>
<path d="M56.3336 81.9008C56.3336 81.9008 59.1826 83.2004 58.4907 90.5907C58.1652 93.8392 59.9154 96.8441 59.9154 96.8441C59.9154 96.8441 54.6647 95.5852 53.9319 91.6465C53.3619 88.682 55.8858 85.7179 56.3336 81.9008Z" fill="#1B6085"/>
<path d="M51.0829 16.1587C51.0829 16.1587 57.1882 11.4484 54.3388 3.04285C54.3388 3.04285 50.8384 4.26105 51.4489 7.91562C52.1003 11.9763 52.1408 14.4939 51.0829 16.1587Z" fill="#1B6085"/>
<path d="M251.059 49.3751C251.059 49.3751 248.332 41.2133 256.269 35.1222C256.269 35.1222 258.508 38.2084 255.902 41.4569C253.297 44.7054 251.099 47.1824 251.059 49.3751Z" fill="#1B6085"/>
<path d="M142.259 48.7251C142.259 48.7251 139.328 41.0912 144.945 37.8428C144.945 37.8428 145.596 39.264 145.311 41.6191C144.986 44.0962 143.357 44.4617 142.259 48.7251Z" fill="#1B6085"/>
<path d="M98.4208 17.0115C98.4208 17.0115 100.416 11.7732 105.137 13.1945C105.137 13.1539 103.875 17.9861 98.4208 17.0115Z" fill="#1B6085"/>
<path d="M92.8446 15.4683C92.8446 15.4683 89.2222 11.6107 93.0482 7.75305C93.0887 7.75305 96.3859 10.8391 92.8446 15.4683Z" fill="#1B6085"/>
<path d="M85.6809 17.0115C85.6809 17.0115 80.3894 17.8643 78.6391 13.8442C78.5983 13.8442 83.6048 12.0982 85.6809 17.0115Z" fill="#1B6085"/>
<path d="M169.489 78.7738C169.489 78.7738 171.484 73.5358 176.205 74.9571C176.205 74.9571 174.943 79.7892 169.489 78.7738Z" fill="#1B6085"/>
<path d="M163.913 77.2719C163.913 77.2719 160.29 73.414 164.116 69.5565C164.116 69.5565 167.454 72.6426 163.913 77.2719Z" fill="#1B6085"/>
<path d="M156.749 78.8145C156.749 78.8145 151.458 79.6672 149.707 75.6473C149.667 75.6065 154.673 73.8605 156.749 78.8145Z" fill="#1B6085"/>
<path d="M223.747 12.1388C223.747 12.1388 221.753 7.91573 225.172 4.54541C225.131 4.54541 227.939 8.11876 223.747 12.1388Z" fill="#1B6085"/>
<path d="M220.775 12.748C220.775 12.748 216.095 12.5043 214.752 7.87516C214.752 7.87516 219.229 7.14425 220.775 12.748Z" fill="#1B6085"/>
<path d="M110.917 148.699C110.917 148.699 106.399 151.054 103.305 147.277C103.305 147.277 107.579 144.638 110.917 148.699Z" fill="#1B6085"/>
<path d="M113.034 151.663C113.034 151.663 112.83 156.901 108.149 157.673C108.149 157.632 107.783 152.678 113.034 151.663Z" fill="#1B6085"/>
<path d="M172.216 131.278C172.216 131.278 176.449 129.288 179.828 132.7C179.828 132.659 176.246 135.461 172.216 131.278Z" fill="#1B6085"/>
<path d="M171.606 128.314C171.606 128.314 171.85 123.645 176.49 122.304C176.449 122.304 177.223 126.771 171.606 128.314Z" fill="#1B6085"/>
<path d="M268.968 72.2771C268.968 72.2771 273.649 73.6984 273.364 78.6524C273.364 78.6116 268.073 78.0838 268.968 72.2771Z" fill="#1B6085"/>
<path d="M269.823 69.7596C269.823 69.7596 272.835 66.1052 277.516 68.9474C277.516 68.9474 274.871 72.6021 269.823 69.7596Z" fill="#1B6085"/>
<path d="M7.36731 22.25C7.36731 22.25 5.04723 26.6761 0 24.6051C0 24.6051 2.03517 19.7323 7.36731 22.25Z" fill="#1B6085"/>
<path d="M9.60587 23.874C9.60587 23.874 13.2285 27.9347 9.60587 31.5893C9.56515 31.5893 5.73906 27.5286 9.60587 23.874Z" fill="#1B6085"/>
<path d="M162.203 6.0479C162.203 6.0479 157.644 5.07336 157.034 0.322396C156.993 0.322396 161.552 0.281789 162.203 6.0479Z" fill="#1B6085"/>
<path d="M160.86 8.76836C160.86 8.76836 157.807 12.3011 153.33 10.5957C153.371 10.5957 155.487 6.57562 160.86 8.76836Z" fill="#1B6085"/>
<path d="M238.034 55.0597C238.034 55.0597 238.889 53.5572 239.174 52.0548C239.703 49.5373 239.947 47.0195 243 46.8979C243.041 46.8979 243.122 53.8012 238.034 55.0597Z" fill="#1B6085"/>
<path d="M219.961 89.4538C219.961 89.4538 222.892 84.7837 228.021 84.2559C234.33 83.6468 236.446 79.9924 237.627 77.7997C237.627 77.7997 228.957 77.6778 225.578 79.5457C222.119 81.4541 221.142 83.6064 219.961 89.4538Z" fill="#1B6085"/>
<path d="M126.994 64.3992C127.239 61.6382 127.239 54.7754 126.547 51.7301C125.652 47.6694 124.837 47.7914 124.308 47.9941C123.779 48.1973 123.901 48.7659 123.616 49.0907C123.291 49.4154 122.802 49.8217 122.151 48.522C121.5 47.1823 121.011 43.3652 119.79 42.0251C118.528 40.6446 117.714 42.8777 117.145 43.4056C116.574 43.9335 116.493 44.299 114.906 43.2432C113.318 42.1875 109.004 39.9948 107.172 41.416C105.381 42.8373 107.335 44.6241 107.905 44.9892C109.085 45.761 112.87 46.9384 113.155 47.5882C113.644 48.7659 111.08 48.8875 110.591 49.7405C110.103 50.5931 110.754 51.4865 111.934 51.7709C113.115 52.0548 116.289 51.4458 117.633 51.7709C118.935 52.0956 118.65 52.5423 118.202 52.8266C117.958 52.989 115.679 54.2475 116.045 55.3441C116.452 56.6434 117.755 57.0497 120.93 56.7653C123.331 56.5622 125.122 58.2678 125.652 59.6483C126.181 61.0696 126.994 64.3992 126.994 64.3992Z" fill="#1B6085"/>
<path d="M110.957 42.8374C110.713 42.6751 110.469 42.5531 110.388 42.5127L109.94 42.797C109.94 42.797 110.021 42.8782 110.672 43.2437C121.011 49.4159 125.285 55.9532 127.076 60.6638C127.076 60.2578 127.076 59.8516 127.076 59.4456C125.081 54.7351 120.645 48.6037 110.957 42.8374Z" fill="#8EBDFF"/>
<path d="M179.339 46.776C179.339 46.776 178.647 40.4822 179.706 35.4468C180.357 32.4013 182.392 28.3813 185.282 25.1327C188.538 21.5188 189.678 20.9097 190.411 20.9097C190.736 20.9097 190.533 21.397 190.411 21.8842C190.085 23.0618 189.8 23.9552 189.434 25.5794C188.742 28.8686 189.434 30.168 188.416 31.8328C187.846 32.8074 184.427 34.0662 185.323 35.2844C185.852 35.9747 188.66 33.1729 189.434 34.1068C190.207 35.0001 188.701 39.1825 186.666 40.4414C180.845 43.9742 179.339 46.776 179.339 46.776Z" fill="#1B6085"/>
<path d="M202.174 87.464V84.2563H183.939V89.6975H187.236V93.1083H183.939H183.858V96.4787H180.56H190.573V93.1083H205.389V87.464H202.174Z" fill="#1B6085"/>
<path d="M123.047 98.1435H119.668V90.3877H114.581V117.797H117.877V114.427H123.047V111.259V104.722H129.193V102.163H134.037V98.1435H123.047Z" fill="#1B6085"/>
<path d="M168.797 110.488H165.418V113.858H168.797V110.488Z" fill="#1B6085"/>
<path d="M136.356 111.259H132.978V114.63H136.356V111.259Z" fill="#1B6085"/>
<path d="M139.735 114.63H136.357V118H139.735V114.63Z" fill="#1B6085"/>
<path d="M162.04 120.639V117.228H165.419V113.858H162.447V106.508H158.54V113.858H149.056V116.985H145.881V120.639H150.399H162.04Z" fill="#1B6085"/>
<path d="M152.597 87.6671H149.219V91.0372H152.597V87.6671Z" fill="#1B6085"/>
<path d="M155.975 84.2563H152.597V87.6264H155.975V84.2563Z" fill="#1B6085"/>
<path d="M108.19 87.8698H103.387V90.428H108.19V87.8698Z" fill="#1B6085"/>
<path d="M92.9665 91.8493H89.5883V88.4789H86.2097V91.8493H89.5883V98.1839V104.722H104.689V98.1839H92.9665V91.8493ZM96.3856 101.311V104.681H93.0074V101.311H96.3856Z" fill="#1B6085"/>
<path d="M181.669 112.178V109.336H178.819V112.178H181.669Z" fill="#1B6085"/>
<path d="M84.7854 78.7738H81.7327V81.6975H84.7854V78.7738Z" fill="#1B6085"/>
<path d="M132.164 9.09718V6.13293H129.193V9.09718H132.164Z" fill="#1B6085"/>
<path d="M187.841 12.9144V9.95007H184.87V12.9144H187.841Z" fill="#1B6085"/>
<path d="M281 54.0316V51.0675H278.029V54.0316H281Z" fill="#1B6085"/>
<path d="M178.338 146.795H181.309V143.831H178.338V146.795Z" fill="#1B6085"/>
<path d="M128.524 157.604H131.496V154.64H128.524V157.604Z" fill="#1B6085"/>
<path d="M191.926 70.6155V67.7729H189.076V70.6155H191.926Z" fill="#1B6085"/>
<path d="M220.858 75.2414V72.3993H218.009V75.2414H220.858Z" fill="#1B6085"/>
<path d="M110.46 72.6976H113.309V69.8551H110.46V72.6976Z" fill="#1B6085"/>
<path d="M105.932 121.686V118.843H103.083V121.686H105.932Z" fill="#1B6085"/>
<path d="M190.573 93.1082V96.4786H186.259V120.639H191.469V117.472H194.644V93.1082H190.573Z" fill="#0053CA"/>
<path d="M155.975 84.2563V87.6672H152.597V91.0376H149.219H145.84V103.098V99.768H149.26V101.392H153.493V99.768V93.1083H164.767V90.4282H167.739V84.2563H155.975Z" fill="#0053CA"/>
<path d="M113.325 75.5564H116.175V72.7139H113.325V75.5564Z" fill="#8EBDFF"/>
<path d="M132.897 87.3016V84.256H121.174V81.6978H112.789V90.3877H119.668V98.1436H123.047V92.5804H126.506V87.3016H132.897Z" fill="#0053CA"/>
<path d="M89.5883 108.092V104.722V98.1436V91.8494H86.2101V88.4794H89.5883V85.0682H92.9668V84.256V81.7385H84.7854V85.1901V85.5556V118.772H92.9668V108.092H89.5883Z" fill="#0053CA"/>
<path d="M84.7854 118.771H81.7327V121.695H84.7854V118.771Z" fill="#0053CA"/>
<path d="M205.308 84.2563H202.133V87.4236H205.308V84.2563Z" fill="#0053CA"/>
<path d="M208.483 87.464H205.308V93.1083H208.483V87.464Z" fill="#0053CA"/>
<path d="M208.483 81.0885H205.308V84.2558H208.483V81.0885Z" fill="#0053CA"/>
<path d="M165.419 117.228H162.04V120.599H165.419V117.228Z" fill="#0053CA"/>
<path d="M123.047 117.797H117.877V120.64H123.047V117.797Z" fill="#0053CA"/>
<path d="M2.97151 34.5679V31.6036H0.000152588V34.5679H2.97151Z" fill="#8EBDFF"/>
<path d="M86.2699 5.56292V2.59863H83.2986V5.56292H86.2699Z" fill="#8EBDFF"/>
<path d="M276.562 19.8731V16.9088H273.591V19.8731H276.562Z" fill="#8EBDFF"/>
<path d="M250.025 86.3073H252.996V83.3428H250.025V86.3073Z" fill="#8EBDFF"/>
<path d="M252.929 83.4506H255.901V80.4861H252.929V83.4506Z" fill="#8EBDFF"/>
<path d="M69.8281 107.977H72.7994V105.013H69.8281V107.977Z" fill="#8EBDFF"/>
<path d="M102.654 136.394H105.626V133.43H102.654V136.394Z" fill="#8EBDFF"/>
<path d="M142.909 123.586H145.881V120.621H142.909V123.586Z" fill="#8EBDFF"/>
<path d="M194.511 78.2503V75.4077H191.661V78.2503H194.511Z" fill="#8EBDFF"/>
<path d="M217.968 78.1005V75.2583H215.119V78.1005H217.968Z" fill="#8EBDFF"/>
<path d="M140.386 84.2563H132.897V87.3017H126.506V92.5805H136.967V89.0885H140.386V84.2563Z" fill="#8EBDFF"/>
<path d="M143.439 81.3729H140.386V84.2966H143.439V81.3729Z" fill="#8EBDFF"/>
<path d="M237.423 7.99695H234.249V11.1643H237.423V7.99695Z" fill="#8EBDFF"/>
<path d="M197.819 120.639H194.644V123.806H197.819V120.639Z" fill="#8EBDFF"/>
<path d="M194.644 117.472H191.469V120.639H194.644V117.472Z" fill="#8EBDFF"/>
<path d="M168.797 110.488V104.234H166.559V101.392H149.26V99.7675H145.84V103.138H149.219V106.508H158.54H160.331H162.448V113.858H165.419V110.488H168.797Z" fill="#8EBDFF"/>
<path d="M152.597 84.2563H149.219V87.6264H152.597V84.2563Z" fill="#8EBDFF"/>
<path d="M149.219 87.6671H145.84V91.0372H149.219V87.6671Z" fill="#8EBDFF"/>
<path d="M133.996 102.163H129.193V104.722H133.996V102.163Z" fill="#8EBDFF"/>
<path d="M81.7323 121.695H78.5577V124.862H81.7323V121.695Z" fill="#8EBDFF"/>
<path d="M96.3451 101.311H92.9665V104.681H96.3451V101.311Z" fill="#8EBDFF"/>
<path d="M92.9669 104.722H89.5883V108.092H92.9669V104.722Z" fill="#8EBDFF"/>
<path d="M100.008 84.256V81.6978H96.386H92.9669V85.0682H89.5883V91.8494H92.9669V90.4281H103.387V87.8699H108.231V84.256H100.008Z" fill="#8EBDFF"/>
<path d="M190.614 86.327H187.236V89.6974H190.614V86.327Z" fill="#8EBDFF"/>
<path d="M183.939 89.6975V84.2563H172.827V93.1083H180.479V96.4787H183.857V93.1083H183.939H187.236V89.6975H183.939Z" fill="#8EBDFF"/>
<path d="M136.356 118V114.63H132.978V111.259H123.047V114.427H117.877V117.797H123.047V118.772V120.639H139.776V118H136.356Z" fill="#8EBDFF"/>
<path d="M168.797 113.858H165.418V117.228H168.797V113.858Z" fill="#0053CA"/>
<path d="M184.829 15.9009V12.9366H181.858V15.9009H184.829Z" fill="#0053CA"/>
<path d="M14.1259 43.2563V40.2917H11.1546V43.2563H14.1259Z" fill="#0053CA"/>
<path d="M92.9855 74.0838V71.1196H90.0142V74.0838H92.9855Z" fill="#0053CA"/>
<path d="M59.7774 73.1602V70.1957H56.8062V73.1602H59.7774Z" fill="#0053CA"/>
<path d="M278.028 57.018V54.0538H275.057V57.018H278.028Z" fill="#0053CA"/>
<path d="M175.386 143.81H178.358V140.846H175.386V143.81Z" fill="#0053CA"/>
<path d="M205.421 108.604H208.392V105.639H205.421V108.604Z" fill="#0053CA"/>
<path d="M125.531 154.658H128.502V151.694H125.531V154.658Z" fill="#8EBDFF"/>
<path d="M178.778 114.996V112.154H175.929V114.996H178.778Z" fill="#0053CA"/>
<path d="M132.734 75.8098H129.559V78.9771H132.734V75.8098Z" fill="#0053CA"/>
<path d="M103.083 124.544V121.702H100.233V124.544H103.083Z" fill="#0053CA"/>
<path d="M153.167 145.775L151.213 143.826L147.957 147.074H145.922V139.724L147.672 137.978L148.324 137.329L149.015 136.679L150.359 135.339V133.309V129.979L147.469 127.136L143.48 131.116L144.172 131.766L146.166 129.776L147.672 131.319V136.638L143.602 140.699L143.276 141.024V147.683H145.922H150.684H151.213L153.167 145.775Z" fill="#0053CA"/>
<path d="M150.358 133.309V135.339L149.015 136.679L148.323 137.329L147.672 137.978L145.921 139.724V147.074H147.021V139.724L148.771 137.978L149.381 137.329L150.073 136.679L151.417 135.339V133.309V129.979L148.527 127.136H147.468L150.358 129.979V133.309Z" fill="#8EBDFF"/>
<path d="M152.312 143.826H151.213L153.167 145.775L151.213 147.683H152.312L154.225 145.775L152.312 143.826Z" fill="#8EBDFF"/>
<path d="M146.695 130.345L146.166 129.776L144.172 131.766H145.23L146.695 130.345Z" fill="#8EBDFF"/>
<path d="M163.831 138.872V143.135H160.901V141.917V138.709H158.825V132.578H155.08V141.917H156.993V147.927H159.843H160.901H165.907V145.044V143.135V138.872H163.831Z" fill="#1B6085"/>
<path d="M167.454 132.537V130.019H164.767V132.578H163.831V138.872H165.907V143.135V144.841H167.454V141.917H168.757V132.537H167.454Z" fill="#8EBDFF"/>
<path d="M165.581 127.258H159.232V128.801H156.993V132.578H158.824V138.709H160.901V132.578H164.767V130.019H165.581V127.258Z" fill="#0053CA"/>
<path d="M124.675 145.775L122.721 143.826L119.465 147.074H117.43V139.724L119.18 137.978L119.831 137.329L120.523 136.679L121.866 135.339V133.309V129.979L118.976 127.136L114.987 131.116L115.679 131.766L117.674 129.776L119.18 131.319V136.638L115.11 140.699L114.784 141.024V147.683H117.43H122.192H122.721L124.675 145.775Z" fill="#0053CA"/>
<path d="M121.866 133.309V135.339L120.523 136.679L119.831 137.329L119.179 137.978L117.429 139.724V147.074H118.528V139.724L120.279 137.978L120.889 137.329L121.581 136.679L122.924 135.339V133.309V129.979L120.034 127.136H118.976L121.866 129.979V133.309Z" fill="#8EBDFF"/>
<path d="M118.203 130.345L117.674 129.776L115.679 131.766H116.737L118.203 130.345Z" fill="#8EBDFF"/>
<path d="M123.82 143.826H122.721L124.675 145.775L122.721 147.683H123.82L125.733 145.775L123.82 143.826Z" fill="#8EBDFF"/>
<path d="M135.339 138.872V143.135H132.408V141.917V138.709H130.332V132.578H126.588V141.917H128.501V147.927H131.35H132.408H137.415V145.044V143.135V138.872H135.339Z" fill="#1B6085"/>
<path d="M138.961 132.537V130.019H136.275V132.578H135.339V138.872H137.415V143.135V144.841H138.961V141.917H140.264V132.537H138.961Z" fill="#8EBDFF"/>
<path d="M137.089 127.258H130.739V128.801H128.501V132.578H130.332V138.709H132.408V132.578H136.275V130.019H137.089V127.258Z" fill="#0053CA"/>
<path d="M121.5 88.7226C121.612 88.7226 121.703 88.6319 121.703 88.5198C121.703 88.4077 121.612 88.3167 121.5 88.3167C121.388 88.3167 121.296 88.4077 121.296 88.5198C121.296 88.6319 121.388 88.7226 121.5 88.7226Z" fill="#8EBDFF"/>
<path d="M121.052 94.042C121.164 94.042 121.256 93.951 121.256 93.8389C121.256 93.7268 121.164 93.6361 121.052 93.6361C120.939 93.6361 120.848 93.7268 120.848 93.8389C120.848 93.951 120.939 94.042 121.052 94.042Z" fill="#8EBDFF"/>
<path d="M121.947 96.925C122.06 96.925 122.151 96.8343 122.151 96.7222C122.151 96.6101 122.06 96.519 121.947 96.519C121.835 96.519 121.744 96.6101 121.744 96.7222C121.744 96.8343 121.835 96.925 121.947 96.925Z" fill="#8EBDFF"/>
<path d="M120.889 91.6058C121.002 91.6058 121.093 91.5148 121.093 91.4026C121.093 91.2905 121.002 91.1995 120.889 91.1995C120.777 91.1995 120.686 91.2905 120.686 91.4026C120.686 91.5148 120.777 91.6058 120.889 91.6058Z" fill="#8EBDFF"/>
<path d="M122.721 86.7328C122.833 86.7328 122.924 86.6418 122.924 86.5297C122.924 86.4176 122.833 86.3265 122.721 86.3265C122.608 86.3265 122.517 86.4176 122.517 86.5297C122.517 86.6418 122.608 86.7328 122.721 86.7328Z" fill="#8EBDFF"/>
<path d="M118.732 84.4994C118.844 84.4994 118.935 84.4084 118.935 84.2963C118.935 84.1842 118.844 84.0935 118.732 84.0935C118.62 84.0935 118.528 84.1842 118.528 84.2963C118.528 84.4084 118.62 84.4994 118.732 84.4994Z" fill="#8EBDFF"/>
<path d="M124.512 91.3618C124.624 91.3618 124.715 91.2712 124.715 91.1591C124.715 91.0469 124.624 90.9559 124.512 90.9559C124.399 90.9559 124.308 91.0469 124.308 91.1591C124.308 91.2712 124.399 91.3618 124.512 91.3618Z" fill="#8EBDFF"/>
<path d="M127.402 85.7175C127.514 85.7175 127.605 85.6269 127.605 85.5148C127.605 85.4027 127.514 85.3116 127.402 85.3116C127.289 85.3116 127.198 85.4027 127.198 85.5148C127.198 85.6269 127.289 85.7175 127.402 85.7175Z" fill="#8EBDFF"/>
<path d="M131.35 86.4888C131.462 86.4888 131.553 86.3982 131.553 86.286C131.553 86.1739 131.462 86.0829 131.35 86.0829C131.238 86.0829 131.146 86.1739 131.146 86.286C131.146 86.3982 131.238 86.4888 131.35 86.4888Z" fill="#8EBDFF"/>
<path d="M114.581 87.5042C114.693 87.5042 114.784 87.4132 114.784 87.301C114.784 87.1889 114.693 87.0983 114.581 87.0983C114.468 87.0983 114.377 87.1889 114.377 87.301C114.377 87.4132 114.468 87.5042 114.581 87.5042Z" fill="#8EBDFF"/>
<path d="M117.715 89.2909C117.827 89.2909 117.918 89.1999 117.918 89.0878C117.918 88.9757 117.827 88.8846 117.715 88.8846C117.602 88.8846 117.511 88.9757 117.511 89.0878C117.511 89.1999 117.602 89.2909 117.715 89.2909Z" fill="#8EBDFF"/>
<path d="M117.266 86.6516C117.379 86.6516 117.47 86.5606 117.47 86.4485C117.47 86.3364 117.379 86.2454 117.266 86.2454C117.154 86.2454 117.063 86.3364 117.063 86.4485C117.063 86.5606 117.154 86.6516 117.266 86.6516Z" fill="#8EBDFF"/>
<path d="M114.295 83.8092C114.408 83.8092 114.499 83.7182 114.499 83.6061C114.499 83.494 114.408 83.4033 114.295 83.4033C114.183 83.4033 114.092 83.494 114.092 83.6061C114.092 83.7182 114.183 83.8092 114.295 83.8092Z" fill="#8EBDFF"/>
<path d="M124.308 87.9915C124.421 87.9915 124.512 87.9008 124.512 87.7887C124.512 87.6766 124.421 87.5856 124.308 87.5856C124.196 87.5856 124.105 87.6766 124.105 87.7887C124.105 87.9008 124.196 87.9915 124.308 87.9915Z" fill="#8EBDFF"/>
<path d="M147.55 94.4888C147.662 94.4888 147.753 94.3978 147.753 94.2857C147.753 94.1735 147.662 94.0829 147.55 94.0829C147.437 94.0829 147.347 94.1735 147.347 94.2857C147.347 94.3978 147.437 94.4888 147.55 94.4888Z" fill="#8EBDFF"/>
<path d="M158.947 88.5601C159.06 88.5601 159.151 88.4691 159.151 88.357C159.151 88.2448 159.06 88.1542 158.947 88.1542C158.835 88.1542 158.743 88.2448 158.743 88.357C158.743 88.4691 158.835 88.5601 158.947 88.5601Z" fill="#8EBDFF"/>
<path d="M151.539 97.8995C151.651 97.8995 151.743 97.8088 151.743 97.6967C151.743 97.5845 151.651 97.4935 151.539 97.4935C151.426 97.4935 151.335 97.5845 151.335 97.6967C151.335 97.8088 151.426 97.8995 151.539 97.8995Z" fill="#8EBDFF"/>
<path d="M149.87 96.1536C149.982 96.1536 150.073 96.0626 150.073 95.9505C150.073 95.8383 149.982 95.7473 149.87 95.7473C149.758 95.7473 149.666 95.8383 149.666 95.9505C149.666 96.0626 149.758 96.1536 149.87 96.1536Z" fill="#8EBDFF"/>
<path d="M151.987 100.539C152.099 100.539 152.19 100.448 152.19 100.336C152.19 100.224 152.099 100.133 151.987 100.133C151.874 100.133 151.783 100.224 151.783 100.336C151.783 100.448 151.874 100.539 151.987 100.539Z" fill="#8EBDFF"/>
<path d="M162.488 90.8338C162.6 90.8338 162.692 90.7431 162.692 90.631C162.692 90.5189 162.6 90.4279 162.488 90.4279C162.376 90.4279 162.284 90.5189 162.284 90.631C162.284 90.7431 162.376 90.8338 162.488 90.8338Z" fill="#8EBDFF"/>
<path d="M147.753 98.5898C147.866 98.5898 147.957 98.4991 147.957 98.387C147.957 98.2748 147.866 98.1838 147.753 98.1838C147.641 98.1838 147.55 98.2748 147.55 98.387C147.55 98.4991 147.641 98.5898 147.753 98.5898Z" fill="#8EBDFF"/>
<path d="M158.743 91.6058C158.856 91.6058 158.947 91.5148 158.947 91.4026C158.947 91.2905 158.856 91.1995 158.743 91.1995C158.631 91.1995 158.54 91.2905 158.54 91.4026C158.54 91.5148 158.631 91.6058 158.743 91.6058Z" fill="#8EBDFF"/>
<path d="M163.668 87.5452C163.781 87.5452 163.872 87.4542 163.872 87.342C163.872 87.2299 163.781 87.1389 163.668 87.1389C163.556 87.1389 163.465 87.2299 163.465 87.342C163.465 87.4542 163.556 87.5452 163.668 87.5452Z" fill="#8EBDFF"/>
<path d="M165.5 86.1239C165.613 86.1239 165.704 86.0329 165.704 85.9208C165.704 85.8087 165.613 85.7177 165.5 85.7177C165.388 85.7177 165.297 85.8087 165.297 85.9208C165.297 86.0329 165.388 86.1239 165.5 86.1239Z" fill="#8EBDFF"/>
<path d="M155.284 89.2909C155.396 89.2909 155.487 89.1999 155.487 89.0878C155.487 88.9757 155.396 88.8846 155.284 88.8846C155.171 88.8846 155.08 88.9757 155.08 89.0878C155.08 89.1999 155.171 89.2909 155.284 89.2909Z" fill="#8EBDFF"/>
<path d="M149.056 92.4582C149.168 92.4582 149.26 92.3672 149.26 92.255C149.26 92.1429 149.168 92.0522 149.056 92.0522C148.943 92.0522 148.853 92.1429 148.853 92.255C148.853 92.3672 148.943 92.4582 149.056 92.4582Z" fill="#8EBDFF"/>
<path d="M160.697 86.4888C160.81 86.4888 160.901 86.3982 160.901 86.286C160.901 86.1739 160.81 86.0829 160.697 86.0829C160.585 86.0829 160.494 86.1739 160.494 86.286C160.494 86.3982 160.585 86.4888 160.697 86.4888Z" fill="#8EBDFF"/>
<path d="M156.993 85.7175C157.106 85.7175 157.197 85.6269 157.197 85.5148C157.197 85.4027 157.106 85.3116 156.993 85.3116C156.881 85.3116 156.79 85.4027 156.79 85.5148C156.79 85.6269 156.881 85.7175 156.993 85.7175Z" fill="#8EBDFF"/>
<path d="M151.743 93.9609C151.855 93.9609 151.946 93.8698 151.946 93.7577C151.946 93.6456 151.855 93.5546 151.743 93.5546C151.63 93.5546 151.539 93.6456 151.539 93.7577C151.539 93.8698 151.63 93.9609 151.743 93.9609Z" fill="#8EBDFF"/>
<path d="M192.69 109.554C192.802 109.554 192.893 109.463 192.893 109.35C192.893 109.238 192.802 109.148 192.69 109.148C192.577 109.148 192.486 109.238 192.486 109.35C192.486 109.463 192.577 109.554 192.69 109.554Z" fill="#8EBDFF"/>
<path d="M192.405 102.082C192.517 102.082 192.608 101.991 192.608 101.879C192.608 101.767 192.517 101.676 192.405 101.676C192.293 101.676 192.201 101.767 192.201 101.879C192.201 101.991 192.293 102.082 192.405 102.082Z" fill="#8EBDFF"/>
<path d="M192.445 96.3972C192.558 96.3972 192.649 96.3066 192.649 96.1945C192.649 96.0824 192.558 95.9913 192.445 95.9913C192.333 95.9913 192.242 96.0824 192.242 96.1945C192.242 96.3066 192.333 96.3972 192.445 96.3972Z" fill="#8EBDFF"/>
<path d="M191.631 105.696C191.743 105.696 191.835 105.605 191.835 105.493C191.835 105.381 191.743 105.29 191.631 105.29C191.519 105.29 191.428 105.381 191.428 105.493C191.428 105.605 191.519 105.696 191.631 105.696Z" fill="#8EBDFF"/>
<path d="M189.718 115.523C189.831 115.523 189.922 115.432 189.922 115.32C189.922 115.208 189.831 115.117 189.718 115.117C189.606 115.117 189.515 115.208 189.515 115.32C189.515 115.432 189.606 115.523 189.718 115.523Z" fill="#8EBDFF"/>
<path d="M188.741 118.771C188.854 118.771 188.945 118.681 188.945 118.569C188.945 118.456 188.854 118.365 188.741 118.365C188.629 118.365 188.538 118.456 188.538 118.569C188.538 118.681 188.629 118.771 188.741 118.771Z" fill="#8EBDFF"/>
<path d="M189.718 99.3208C189.831 99.3208 189.922 99.2298 189.922 99.1177C189.922 99.0056 189.831 98.9149 189.718 98.9149C189.606 98.9149 189.515 99.0056 189.515 99.1177C189.515 99.2298 189.606 99.3208 189.718 99.3208Z" fill="#8EBDFF"/>
<path d="M193.056 114.954C193.169 114.954 193.259 114.863 193.259 114.751C193.259 114.639 193.169 114.549 193.056 114.549C192.944 114.549 192.852 114.639 192.852 114.751C192.852 114.863 192.944 114.954 193.056 114.954Z" fill="#8EBDFF"/>
<path d="M189.963 109.432C190.075 109.432 190.166 109.341 190.166 109.229C190.166 109.117 190.075 109.026 189.963 109.026C189.85 109.026 189.759 109.117 189.759 109.229C189.759 109.341 189.85 109.432 189.963 109.432Z" fill="#8EBDFF"/>
<path d="M188.253 112.843C188.366 112.843 188.456 112.752 188.456 112.64C188.456 112.528 188.366 112.437 188.253 112.437C188.141 112.437 188.05 112.528 188.05 112.64C188.05 112.752 188.141 112.843 188.253 112.843Z" fill="#8EBDFF"/>
<path d="M187.724 102.813C187.836 102.813 187.927 102.722 187.927 102.61C187.927 102.498 187.836 102.407 187.724 102.407C187.611 102.407 187.52 102.498 187.52 102.61C187.52 102.722 187.611 102.813 187.724 102.813Z" fill="#8EBDFF"/>
<path d="M85.9247 117.756C86.0371 117.756 86.1283 117.666 86.1283 117.553C86.1283 117.441 86.0371 117.35 85.9247 117.35C85.8123 117.35 85.7214 117.441 85.7214 117.553C85.7214 117.666 85.8123 117.756 85.9247 117.756Z" fill="#8EBDFF"/>
<path d="M91.9896 116.66C92.102 116.66 92.1932 116.569 92.1932 116.457C92.1932 116.345 92.102 116.254 91.9896 116.254C91.8772 116.254 91.7863 116.345 91.7863 116.457C91.7863 116.569 91.8772 116.66 91.9896 116.66Z" fill="#8EBDFF"/>
<path d="M86.1283 94.8135C86.2407 94.8135 86.3316 94.7225 86.3316 94.6104C86.3316 94.4982 86.2407 94.4076 86.1283 94.4076C86.0159 94.4076 85.9247 94.4982 85.9247 94.6104C85.9247 94.7225 86.0159 94.8135 86.1283 94.8135Z" fill="#8EBDFF"/>
<path d="M88.0413 87.1796C88.1537 87.1796 88.2449 87.0886 88.2449 86.9765C88.2449 86.8643 88.1537 86.7737 88.0413 86.7737C87.9289 86.7737 87.8377 86.8643 87.8377 86.9765C87.8377 87.0886 87.9289 87.1796 88.0413 87.1796Z" fill="#8EBDFF"/>
<path d="M91.5009 83.5656C91.6133 83.5656 91.7046 83.4746 91.7046 83.3624C91.7046 83.2503 91.6133 83.1597 91.5009 83.1597C91.3885 83.1597 91.2976 83.2503 91.2976 83.3624C91.2976 83.4746 91.3885 83.5656 91.5009 83.5656Z" fill="#8EBDFF"/>
<path d="M86.7389 107.077C86.8513 107.077 86.9421 106.986 86.9421 106.874C86.9421 106.762 86.8513 106.671 86.7389 106.671C86.6265 106.671 86.5352 106.762 86.5352 106.874C86.5352 106.986 86.6265 107.077 86.7389 107.077Z" fill="#8EBDFF"/>
<path d="M86.5757 115.239C86.6881 115.239 86.7794 115.148 86.7794 115.036C86.7794 114.923 86.6881 114.832 86.5757 114.832C86.4633 114.832 86.3725 114.923 86.3725 115.036C86.3725 115.148 86.4633 115.239 86.5757 115.239Z" fill="#8EBDFF"/>
<path d="M87.3494 100.945C87.4618 100.945 87.5527 100.854 87.5527 100.742C87.5527 100.63 87.4618 100.539 87.3494 100.539C87.237 100.539 87.1458 100.63 87.1458 100.742C87.1458 100.854 87.237 100.945 87.3494 100.945Z" fill="#8EBDFF"/>
<path d="M89.6288 113.452C89.7412 113.452 89.8321 113.361 89.8321 113.249C89.8321 113.137 89.7412 113.046 89.6288 113.046C89.5164 113.046 89.4252 113.137 89.4252 113.249C89.4252 113.361 89.5164 113.452 89.6288 113.452Z" fill="#8EBDFF"/>
<path d="M88.4482 116.335C88.5606 116.335 88.6519 116.244 88.6519 116.132C88.6519 116.02 88.5606 115.929 88.4482 115.929C88.3358 115.929 88.245 116.02 88.245 116.132C88.245 116.244 88.3358 116.335 88.4482 116.335Z" fill="#8EBDFF"/>
<path d="M89.466 83.2409C89.5784 83.2409 89.6697 83.1499 89.6697 83.0377C89.6697 82.9256 89.5784 82.8346 89.466 82.8346C89.3536 82.8346 89.2628 82.9256 89.2628 83.0377C89.2628 83.1499 89.3536 83.2409 89.466 83.2409Z" fill="#8EBDFF"/>
<path d="M88.4077 108.904C88.5201 108.904 88.6113 108.813 88.6113 108.701C88.6113 108.589 88.5201 108.498 88.4077 108.498C88.2953 108.498 88.2041 108.589 88.2041 108.701C88.2041 108.813 88.2953 108.904 88.4077 108.904Z" fill="#8EBDFF"/>
<path d="M91.2571 110.406C91.3695 110.406 91.4604 110.316 91.4604 110.203C91.4604 110.091 91.3695 110 91.2571 110C91.1447 110 91.0535 110.091 91.0535 110.203C91.0535 110.316 91.1447 110.406 91.2571 110.406Z" fill="#8EBDFF"/>
<path d="M86.1283 83.8904C86.2407 83.8904 86.3316 83.7998 86.3316 83.6876C86.3316 83.5755 86.2407 83.4845 86.1283 83.4845C86.0159 83.4845 85.9247 83.5755 85.9247 83.6876C85.9247 83.7998 86.0159 83.8904 86.1283 83.8904Z" fill="#8EBDFF"/>
<path d="M86.983 104.316C87.0954 104.316 87.1863 104.225 87.1863 104.113C87.1863 104.001 87.0954 103.91 86.983 103.91C86.8706 103.91 86.7794 104.001 86.7794 104.113C86.7794 104.225 86.8706 104.316 86.983 104.316Z" fill="#8EBDFF"/>
<path d="M157.97 130.263C158.105 130.263 158.214 130.154 158.214 130.02C158.214 129.885 158.105 129.776 157.97 129.776C157.835 129.776 157.726 129.885 157.726 130.02C157.726 130.154 157.835 130.263 157.97 130.263Z" fill="#8EBDFF"/>
<path d="M162.692 128.436C162.826 128.436 162.936 128.327 162.936 128.192C162.936 128.058 162.826 127.949 162.692 127.949C162.557 127.949 162.448 128.058 162.448 128.192C162.448 128.327 162.557 128.436 162.692 128.436Z" fill="#8EBDFF"/>
<path d="M160.86 130.669C160.995 130.669 161.104 130.56 161.104 130.426C161.104 130.291 160.995 130.182 160.86 130.182C160.725 130.182 160.616 130.291 160.616 130.426C160.616 130.56 160.725 130.669 160.86 130.669Z" fill="#8EBDFF"/>
<path d="M163.587 131.4C163.722 131.4 163.831 131.291 163.831 131.157C163.831 131.022 163.722 130.913 163.587 130.913C163.452 130.913 163.343 131.022 163.343 131.157C163.343 131.291 163.452 131.4 163.587 131.4Z" fill="#8EBDFF"/>
<path d="M160.086 132.252C160.221 132.252 160.331 132.144 160.331 132.009C160.331 131.875 160.221 131.765 160.086 131.765C159.952 131.765 159.842 131.875 159.842 132.009C159.842 132.144 159.952 132.252 160.086 132.252Z" fill="#8EBDFF"/>
<path d="M159.842 137.938C159.977 137.938 160.086 137.829 160.086 137.694C160.086 137.559 159.977 137.451 159.842 137.451C159.708 137.451 159.598 137.559 159.598 137.694C159.598 137.829 159.708 137.938 159.842 137.938Z" fill="#8EBDFF"/>
<path d="M159.476 134.892C159.611 134.892 159.72 134.783 159.72 134.649C159.72 134.514 159.611 134.405 159.476 134.405C159.341 134.405 159.232 134.514 159.232 134.649C159.232 134.783 159.341 134.892 159.476 134.892Z" fill="#8EBDFF"/>
<path d="M129.478 130.263C129.613 130.263 129.722 130.154 129.722 130.02C129.722 129.885 129.613 129.776 129.478 129.776C129.343 129.776 129.233 129.885 129.233 130.02C129.233 130.154 129.343 130.263 129.478 130.263Z" fill="#8EBDFF"/>
<path d="M130.984 131.4C131.119 131.4 131.228 131.291 131.228 131.157C131.228 131.022 131.119 130.913 130.984 130.913C130.849 130.913 130.739 131.022 130.739 131.157C130.739 131.291 130.849 131.4 130.984 131.4Z" fill="#8EBDFF"/>
<path d="M135.339 128.679C135.474 128.679 135.583 128.57 135.583 128.436C135.583 128.301 135.474 128.192 135.339 128.192C135.204 128.192 135.095 128.301 135.095 128.436C135.095 128.57 135.204 128.679 135.339 128.679Z" fill="#8EBDFF"/>
<path d="M133.955 130.913C134.09 130.913 134.199 130.804 134.199 130.669C134.199 130.535 134.09 130.425 133.955 130.425C133.82 130.425 133.711 130.535 133.711 130.669C133.711 130.804 133.82 130.913 133.955 130.913Z" fill="#8EBDFF"/>
<path d="M131.35 133.796C131.485 133.796 131.594 133.687 131.594 133.552C131.594 133.418 131.485 133.308 131.35 133.308C131.215 133.308 131.106 133.418 131.106 133.552C131.106 133.687 131.215 133.796 131.35 133.796Z" fill="#8EBDFF"/>
<path d="M131.594 129.735C131.729 129.735 131.838 129.626 131.838 129.492C131.838 129.357 131.729 129.248 131.594 129.248C131.459 129.248 131.35 129.357 131.35 129.492C131.35 129.626 131.459 129.735 131.594 129.735Z" fill="#8EBDFF"/>
<path d="M131.228 137.166C131.363 137.166 131.472 137.057 131.472 136.922C131.472 136.788 131.363 136.679 131.228 136.679C131.093 136.679 130.984 136.788 130.984 136.922C130.984 137.057 131.093 137.166 131.228 137.166Z" fill="#8EBDFF"/>
<path d="M254.519 19.8133C254.519 19.2448 253.42 19.0011 253.216 18.6357C253.094 18.4326 253.461 18.2702 253.745 18.3108C253.949 18.3108 255.699 18.6357 256.92 18.6357C261.072 18.7575 262.171 17.7423 262.13 17.1738C262.089 16.6053 260.502 16.3211 260.258 15.9556C260.054 15.5902 260.339 15.2247 261.764 14.9811C263.229 14.7374 265.753 14.6156 267.422 13.8441C269.091 13.0726 268.724 12.1792 266.608 11.5295C265.834 11.2047 266.323 10.7174 267.788 9.58042C269.253 8.44343 272.876 4.87005 271.736 3.00217C270.76 1.62154 268.968 2.43367 267.706 3.73307C266.73 4.70764 264.817 6.69735 264.125 6.73798C262.863 6.85979 264.003 4.95127 263.351 4.26095C262.7 3.57066 261.316 4.78887 260.746 5.80403C260.176 6.81917 259.729 8.44343 259.118 9.62104C258.467 10.9204 257.816 10.4331 257.612 9.98648C257.449 9.53982 257.734 7.71252 256.472 7.50949C255.374 7.34705 254.071 10.1489 252.972 11.7326C252.565 12.3417 252.036 12.9101 251.466 13.3974C251.14 13.6411 250.977 13.5599 250.896 13.3974C250.733 13.1538 250.896 11.6108 249.797 11.2859C248.82 11.0422 247.884 12.6665 246.622 14.169C245.605 15.3872 244.18 16.0369 242.633 16.5242C240.517 17.1738 237.301 17.3363 237.301 17.3363C237.301 17.3363 238.889 18.0266 240.232 18.4326C243.488 19.4072 245.035 19.9351 248.698 20.3005C251.466 20.5848 254.356 20.869 254.519 19.8133C254.519 19.8539 254.519 19.8133 254.519 19.8133Z" fill="#1B6085"/>
<path d="M85.5586 51.2833C87.3089 47.5882 86.7392 42.9592 84.7853 39.3045C82.8723 35.7311 80.3893 33.1729 76.4002 31.305C75.4237 30.8583 72.7779 30.0868 72.7779 30.0868C72.7779 30.0868 72.8184 32.3201 72.8998 32.9698C73.2662 35.6905 73.6734 38.533 75.3423 40.401C76.8889 42.147 78.8832 42.9996 80.9594 44.1366C86.6983 47.3446 85.5586 51.2833 85.5586 51.2833Z" fill="#1B6085"/>
<path d="M55.8044 77.0687C55.8044 77.0687 66.4685 76.5408 70.4576 84.3779C74.7314 92.7427 78.9241 95.5853 78.9241 95.5853C78.9241 95.5853 70.254 96.7626 66.143 91.8089C61.9915 86.8549 63.8231 81.86 55.8044 77.0687Z" fill="#1B6085"/>
<path d="M252.972 57.2121C252.972 57.2121 250.896 51.7301 253.542 48.1161C255.618 45.2332 260.543 44.5429 264.939 45.0301C267.91 45.3552 271.696 43.4464 271.696 43.4464C271.696 43.4464 271.696 47.8322 266.893 49.2127C264.206 49.9841 261.845 48.8068 258.141 51.2834C253.298 54.4915 252.972 57.2121 252.972 57.2121Z" fill="#1B6085"/>
<path d="M143.683 59.9326C141.933 56.2375 142.544 51.6489 144.457 47.9537C147.957 41.2537 156.464 39.9543 156.464 39.9543C156.464 39.9543 155.732 45.4359 153.086 48.5628C151.58 50.3496 148.934 50.9991 147.102 52.4611C142.747 55.9127 143.683 59.9326 143.683 59.9326Z" fill="#1B6085"/>
<path d="M231.359 67.8915C231.033 67.648 217.519 62.8155 229.69 52.9077L238.034 46.2076C238.034 46.2076 238.319 53.6387 233.068 58.5113C227.858 63.2622 231.359 67.8915 231.359 67.8915Z" fill="#1B6085"/>
<path d="M96.7928 67.8915C96.4673 67.648 82.9537 62.8155 95.124 52.9077L103.468 46.2076C103.468 46.2076 103.753 53.6387 98.5026 58.5113C93.3332 63.2622 96.7928 67.8915 96.7928 67.8915Z" fill="#1B6085"/>
<path d="M216.705 96.7626C216.705 96.7626 221.427 89.4943 229.487 88.8852C236.243 88.3573 244.669 92.2553 244.669 92.2553C244.669 92.2553 238.075 97.7372 229.731 96.8438C223.707 96.1943 221.956 94.2044 216.705 96.7626Z" fill="#1B6085"/>
<path d="M51.9784 26.5542C50.9201 26.5542 50.8387 29.4779 50.7169 32.2392C50.5946 35.8938 50.9201 37.4775 51.4493 40.8479C51.6529 42.2284 52.1412 43.8932 52.1412 43.8932C52.1412 43.8932 52.7112 40.7259 53.6473 38.6956C54.3392 37.2339 55.1534 35.8938 56.4967 35.041C58.1247 34.0259 59.8749 33.2949 59.7935 32.3204C59.5899 31.1834 58.0433 31.1428 57.8397 30.9398C57.7178 30.8179 57.6364 30.6555 57.921 30.3713C58.4911 29.884 59.1425 29.4373 59.7935 29.1125C61.5032 28.2191 64.4745 27.3258 64.4337 26.2294C64.3932 24.93 62.5615 25.0112 62.1543 24.7676C61.7065 24.5239 61.3401 23.8336 62.7243 23.3463C63.9859 22.8997 65.6547 22.6966 66.7539 22.2499C67.8527 21.8439 69.2366 20.6663 68.6669 19.8948C68.0564 19.1233 66.0211 20.0166 66.3061 18.7578C66.4689 18.0675 68.6669 16.4432 69.8066 15.6311C71.2718 14.5753 72.3301 12.8698 71.0685 11.7329C69.3588 10.3523 65.3292 13.4384 63.9859 14.7377C62.6429 16.0372 62.1138 16.4432 61.8693 15.6717C61.5032 13.5195 60.6482 13.0323 59.6713 14.5753C58.6947 16.1184 58.2061 18.5954 57.7991 20.0166C57.3919 21.4378 56.9445 21.6408 56.6186 21.3972C56.2931 21.1536 56.2117 19.4887 55.6417 19.4075C55.1125 19.2857 53.9728 20.2196 53.4845 24.3615C53.3623 25.5391 53.4031 27.3258 53.4031 27.5288C53.3623 27.8537 53.1995 28.1785 52.9962 28.0161C52.6298 27.7724 52.5485 26.5948 51.9784 26.5542Z" fill="#1B6085"/>
<path d="M197.778 56.4811C198.307 56.3591 198.307 55.2222 198.633 54.9786C198.836 54.8162 198.999 55.141 199.08 55.4253C199.121 55.6285 199.203 57.4149 199.406 58.5926C200.18 62.694 201.36 63.5059 201.889 63.3435C202.418 63.1811 202.378 61.5567 202.703 61.2728C203.029 60.9884 203.436 61.1916 203.965 62.5313C204.494 63.9122 205.145 66.3484 206.244 67.8105C207.343 69.2722 208.117 68.7035 208.32 66.5108C208.483 65.6986 209.053 66.0641 210.477 67.2418C211.902 68.4195 216.094 71.1805 217.682 69.7188C218.822 68.5007 217.641 66.8763 216.135 65.9425C214.996 65.1707 212.675 63.7498 212.472 63.0592C212.106 61.8411 214.181 62.5721 214.711 61.7599C215.24 60.9477 213.775 59.8919 212.675 59.5672C211.577 59.2424 209.908 59.1205 208.646 58.7957C207.262 58.4302 207.587 57.6992 207.995 57.4149C208.361 57.1309 210.193 57.0901 210.152 55.7908C210.111 54.6943 207.099 54.004 205.349 53.273C204.698 52.989 204.046 52.5828 203.436 52.1361C203.151 51.8925 203.191 51.6894 203.314 51.5678C203.517 51.3646 205.023 51.1615 205.145 50.0245C205.145 49.05 203.395 48.4409 201.726 47.5475C200.302 46.8169 199.406 45.558 198.633 44.1367C197.574 42.2283 196.801 39.2234 196.801 39.2234C196.801 39.2234 196.435 40.7663 196.313 42.1875C196.069 45.5984 195.865 47.2228 196.272 50.8368C196.435 53.6385 196.72 56.5623 197.778 56.4811Z" fill="#1B6085"/>
<path d="M184.427 29.3559C184.386 29.4371 180.153 35.8529 179.217 45.8422C179.136 45.1112 179.136 44.0962 179.095 43.3244C180.398 34.5535 183.939 29.1122 183.979 29.0717L184.427 29.3559Z" fill="#8EBDFF"/>
<path d="M72.0447 92.4585C69.7249 91.3619 68.7888 89.4535 67.7305 87.2201C66.9568 85.596 66.0616 83.728 64.4333 81.9413C60.0373 77.1903 50.0651 76.1346 49.9837 76.1346L50.0651 75.5255C50.472 75.5663 60.3632 76.6221 64.9219 81.5353C66.6313 83.3625 67.5268 85.2713 68.341 86.9361C69.3585 89.0476 70.2131 90.8748 72.3298 91.8494L72.0447 92.4585Z" fill="#8EBDFF"/>
<path d="M52.1003 48.5628C51.8562 46.6544 50.9198 36.8682 54.2983 29.6401C58.2871 21.194 65.9394 15.6715 66.0208 15.6309L66.3872 16.1181C66.3058 16.1588 58.7757 21.6 54.868 29.9244C51.5303 36.9898 52.5072 46.6544 52.7109 48.522L52.1003 48.5628Z" fill="#8EBDFF"/>
<path d="M243.895 18.1891C238.644 18.1891 233.923 17.0521 232.661 16.7273L232.823 16.1182C234.655 16.6055 244.098 18.8388 251.588 16.5243C260.38 13.8036 266.77 7.10352 266.851 7.02234L267.299 7.42841C267.218 7.50959 260.705 14.2909 251.791 17.0927C249.227 17.9049 246.459 18.1891 243.895 18.1891Z" fill="#8EBDFF"/>
<path d="M212.431 66.2672C212.35 66.2268 204.413 61.3131 199.854 53.1918C198.063 50.0245 197.208 46.2077 196.72 42.8373C196.597 42.0251 196.476 40.3603 196.476 40.3603L196.842 38.4519C197.045 42.3906 197.859 48.4004 200.383 52.9078C204.86 60.8664 212.675 65.7393 212.757 65.7801L212.431 66.2672Z" fill="#8EBDFF"/>
<path d="M86.5353 45.5983C86.4948 45.1112 86.4539 44.5833 86.3725 44.0958C82.9534 38.7358 76.278 34.1067 75.9525 33.9037L75.6266 34.391C75.6675 34.4316 83.5231 39.8324 86.5353 45.5983Z" fill="#8EBDFF"/>
<path d="M99.7641 51.5679C99.7232 51.6083 97.2811 53.9637 94.9612 56.1564C92.1118 58.8366 91.0944 61.5572 91.8677 64.7245C92.1527 65.0088 92.4373 65.2928 92.7632 65.5367C91.5827 62.1663 92.3968 59.4049 95.409 56.6031C97.7289 54.4104 100.212 52.0146 100.212 52.0146L99.7641 51.5679Z" fill="#8EBDFF"/>
<path d="M233.922 52.5016C233.882 52.5424 231.44 54.8974 229.119 57.0901C226.799 59.2829 225.7 61.4759 225.782 63.9122C225.985 64.1965 226.229 64.4401 226.474 64.6836C226.108 62.085 227.084 59.8107 229.567 57.4964C231.887 55.3037 234.37 52.9079 234.37 52.9079L233.922 52.5016Z" fill="#8EBDFF"/>
<path d="M142.869 52.7047C142.787 53.2326 142.706 53.7604 142.706 54.2883C145.637 48.2785 152.719 44.2178 152.8 44.177L152.515 43.6492C152.475 43.6492 149.951 45.1112 147.306 47.5071C145.8 48.8472 144.131 50.5932 142.869 52.7047Z" fill="#8EBDFF"/>
<path d="M257.286 48.0755C260.095 46.695 264.531 47.1824 264.572 47.1824L264.653 46.573C264.45 46.5326 259.972 46.0451 257.001 47.5072C255.047 48.441 253.46 49.9434 252.198 51.9738C252.157 52.3801 252.157 52.8264 252.198 53.2327C253.46 50.8776 255.17 49.1312 257.286 48.0755Z" fill="#8EBDFF"/>
<path d="M213.693 99.8487L213.205 99.4832C213.286 99.402 214.833 97.3717 217.478 95.7476C218.944 94.8542 220.572 94.1232 222.648 93.3922C228.305 91.4838 236.649 92.1337 237.016 92.1741L236.975 92.7831C236.894 92.7831 228.387 92.0929 222.851 94.0013C220.775 94.6919 219.229 95.4225 217.804 96.2755C215.28 97.8184 213.734 99.8487 213.693 99.8487Z" fill="#8EBDFF"/>
</svg>
